<svg width="445" height="444" viewBox="0 0 445 444" fill="none" xmlns="http://www.w3.org/2000/svg">
<path d="M58.4072 429.838H351.234C355.695 429.838 358.906 427.084 359.307 422.911L394.513 61.6966C394.858 58.0961 393.11 54.3597 390.312 51.5599C387.619 48.8667 379.788 40.9111 379.788 40.9111L87.4164 47.0398C82.9555 47.0398 79.7466 49.796 79.3455 53.9667L39.4527 416.931C39.4527 416.931 45.7271 422.897 48.778 425.735C51.4229 428.203 54.8944 429.838 58.4072 429.838Z" fill="#0C3029"/>
<path d="M58.4073 430.372H351.234C355.955 430.372 359.414 427.395 359.84 422.962L395.045 61.75C395.386 58.2004 393.759 54.2529 390.691 51.1838C388.017 48.5149 380.238 40.6175 380.17 40.5375C380.118 40.4861 380.057 40.4455 379.989 40.418C379.922 40.3905 379.849 40.3767 379.776 40.3773L87.4067 46.506C82.6955 46.506 79.2386 49.4854 78.8131 53.9157L38.9228 416.88C38.9134 416.962 38.9232 417.045 38.9515 417.122C38.9797 417.199 39.0257 417.269 39.0857 417.326C39.1465 417.384 45.4063 423.326 48.4135 426.133C51.3088 428.826 54.9504 430.372 58.4073 430.372ZM379.57 41.4497C380.705 42.6022 387.485 49.4878 389.933 51.9359C392.777 54.7843 394.289 58.4115 393.981 61.6408L358.775 422.86C358.398 426.774 355.437 429.304 351.239 429.304H58.4073C55.2227 429.304 51.8436 427.863 49.1476 425.352C46.4516 422.841 41.0961 417.758 40.0192 416.734L79.8876 54.0249C80.2644 50.1041 83.223 47.576 87.4238 47.576L379.57 41.4497Z" fill="#0C3029"/>
<path d="M48.1971 419.078H341.026C345.487 419.078 348.696 416.324 349.097 412.151L383.719 51.9529C384.4 44.8877 377.015 37.2985 369.457 37.2985H76.6252C72.1643 37.2985 68.953 40.0522 68.5518 44.2254L33.9295 404.421C33.2513 411.489 40.6367 419.078 48.1971 419.078Z" fill="white"/>
<path d="M48.1971 419.612H341.026C345.747 419.612 349.204 416.635 349.629 412.202L384.254 52.0062C384.575 48.6653 383.189 45.026 380.452 42.0199C377.457 38.7275 373.346 36.7646 369.457 36.7646H76.6252C71.9042 36.7646 68.4449 39.7416 68.0195 44.1744L33.3972 404.37C33.0763 407.711 34.4619 411.35 37.1992 414.356C40.1942 417.646 44.3075 419.612 48.1971 419.612ZM369.457 37.8322C373.05 37.8322 376.864 39.6664 379.667 42.738C382.202 45.5209 383.488 48.8618 383.194 51.9019L348.572 412.1C348.195 416.013 345.237 418.544 341.036 418.544H48.1971C44.6041 418.544 40.7898 416.71 37.9869 413.638C35.4514 410.853 34.1653 407.514 34.4571 404.472L69.0843 44.2763C69.4611 40.3603 72.4221 37.8322 76.6204 37.8322H369.457Z" fill="#0C3029"/>
<path d="M66.0237 397.627H324.036C328.229 397.627 331.302 394.98 331.681 391.043L362.188 73.6724C362.472 70.7124 361.245 67.4879 358.821 64.8264C356.171 61.9149 352.532 60.1753 349.097 60.1753H91.0727C86.8792 60.1753 83.8065 62.8223 83.4297 66.7601L52.923 384.128C52.6385 387.09 53.8638 390.315 56.2875 392.976C58.9397 395.888 62.5789 397.627 66.0237 397.627ZM349.087 61.2428C352.235 61.2428 355.578 62.8514 358.031 65.5445C360.25 67.9829 361.378 70.9089 361.121 73.5705L330.616 390.938C330.288 394.354 327.699 396.56 324.036 396.56H66.0237C62.8755 396.56 59.5329 394.951 57.08 392.258C54.8581 389.817 53.7325 386.894 53.9877 384.23L84.4944 66.862C84.8226 63.4483 87.4116 61.2428 91.0727 61.2428H349.087Z" fill="#0C3029"/>
<path d="M295.394 397.564H324.036C328.229 397.564 331.302 394.917 331.681 390.977L339.246 312.256C339.26 312.115 339.217 311.974 339.127 311.865C339.036 311.756 338.906 311.687 338.765 311.673C338.624 311.66 338.483 311.703 338.374 311.793C338.264 311.883 338.195 312.013 338.182 312.154L330.614 390.866C330.286 394.279 327.697 396.487 324.036 396.487H295.394C295.252 396.487 295.116 396.543 295.015 396.644C294.915 396.744 294.859 396.879 294.859 397.021C294.859 397.163 294.915 397.298 295.015 397.398C295.116 397.498 295.252 397.555 295.394 397.555V397.564Z" fill="#0C3029"/>
<path d="M71.2916 199.045C71.4249 199.045 71.5535 198.996 71.652 198.906C71.7505 198.816 71.8118 198.693 71.8239 198.56L74.6707 168.924C74.6777 168.854 74.6706 168.783 74.6499 168.715C74.6291 168.648 74.5951 168.585 74.5499 168.531C74.5046 168.477 74.449 168.432 74.3862 168.4C74.3235 168.367 74.2549 168.347 74.1845 168.341C74.114 168.334 74.0427 168.34 73.9748 168.361C73.9069 168.381 73.8439 168.415 73.7894 168.46C73.735 168.506 73.6902 168.561 73.6578 168.624C73.6255 168.687 73.6061 168.756 73.601 168.827L70.7616 198.466C70.7549 198.536 70.7622 198.606 70.7831 198.674C70.8039 198.741 70.838 198.804 70.8832 198.858C70.9284 198.912 70.9838 198.957 71.0464 198.989C71.109 199.022 71.1774 199.042 71.2478 199.048L71.2916 199.045Z" fill="#0C3029"/>
<path d="M412.524 39.2613L406.337 64.9502C403.748 75.4582 384.191 79.6094 362.657 74.2208C341.123 68.8321 325.764 55.9464 328.353 45.4384L334.54 19.7495L412.524 39.2613Z" fill="#0C3029"/>
<path d="M381.001 77.1323C388.892 77.1323 395.794 75.6571 400.612 72.7651C403.991 70.7343 406.089 68.1552 406.845 65.0812L413.044 39.3874C413.078 39.2504 413.055 39.1059 412.982 38.9854C412.908 38.865 412.79 38.7784 412.653 38.7445L334.669 19.2327C334.6 19.2154 334.529 19.2118 334.459 19.2223C334.389 19.2327 334.322 19.2569 334.262 19.2935C334.201 19.3301 334.149 19.3783 334.107 19.4354C334.066 19.4924 334.036 19.5572 334.02 19.6258L327.833 45.3123C325.178 56.0872 340.742 69.2883 362.526 74.74C368.564 76.2829 374.768 77.0862 381.001 77.1323ZM411.875 39.6519L405.812 64.8264C405.127 67.6045 403.194 69.9676 400.065 71.848C392.084 76.6446 377.457 77.3749 362.781 73.704C341.566 68.3954 326.352 55.7718 328.869 45.5598L334.934 20.3998L411.875 39.6519Z" fill="#0C3029"/>
<path d="M334.285 11.4033L378.473 4.43031C379.294 4.34856 380.119 4.55441 380.805 5.01261L416.618 32.0262L432.539 35.998L430.643 43.6916C430.584 43.9465 430.447 44.1764 430.249 44.3481C430.052 44.5199 429.805 44.6248 429.544 44.6475L369.576 50.5723C368.754 50.6524 367.93 50.4457 367.244 49.9876L316.996 16.4984C316.776 16.3553 316.607 16.1469 316.512 15.9027C316.417 15.6584 316.402 15.3907 316.468 15.1373L318.364 7.44127L334.285 11.4033Z" fill="white"/>
<path d="M369.23 51.1231C369.362 51.1231 369.498 51.1231 369.632 51.1037L429.597 45.1788C429.968 45.1446 430.318 44.995 430.599 44.7512C430.88 44.5074 431.077 44.1817 431.163 43.8202L433.059 36.1266C433.093 35.9892 433.071 35.8441 432.998 35.7227C432.925 35.6014 432.807 35.5137 432.67 35.4788L416.851 31.5216L381.116 4.59045C380.321 4.05441 379.365 3.81081 378.41 3.90139L334.309 10.8695L318.493 6.91235C318.425 6.89531 318.354 6.8919 318.284 6.90233C318.214 6.91275 318.147 6.9368 318.087 6.97309C318.027 7.00939 317.974 7.05721 317.933 7.11382C317.891 7.17043 317.861 7.23471 317.844 7.30297L315.948 14.9965C315.854 15.3578 315.876 15.7394 316.011 16.0875C316.146 16.4357 316.386 16.7329 316.699 16.9375L366.95 50.4316C367.625 50.8819 368.419 51.1225 369.23 51.1231ZM431.892 36.3935L430.125 43.5727C430.092 43.7196 430.013 43.8522 429.899 43.9512C429.785 44.0503 429.643 44.1106 429.493 44.1234L369.525 50.0483C368.828 50.1186 368.128 49.9473 367.543 49.563L317.292 16.0423C317.165 15.959 317.067 15.8383 317.012 15.6969C316.957 15.5556 316.948 15.4006 316.986 15.2537L318.753 8.07936L334.156 11.9322C334.227 11.9468 334.299 11.9468 334.37 11.9322L378.556 4.95681C379.242 4.89882 379.928 5.07503 380.501 5.45661L416.295 32.4387C416.351 32.4828 416.417 32.5142 416.487 32.5309L431.892 36.3935Z" fill="#0C3029"/>
<path d="M319.463 6.47558L379.429 0.55072C380.25 0.470185 381.073 0.675946 381.76 1.13302L432.011 34.6368C432.229 34.7812 432.397 34.989 432.491 35.2321C432.586 35.4751 432.604 35.7414 432.541 35.9946C432.479 36.2479 432.339 36.4757 432.142 36.6469C431.945 36.8182 431.7 36.9245 431.44 36.9514L371.474 42.8763C370.653 42.9572 369.829 42.7514 369.143 42.294L318.892 8.79262C318.674 8.64782 318.507 8.43973 318.413 8.19666C318.318 7.95359 318.301 7.68735 318.363 7.43415C318.426 7.18095 318.565 6.95309 318.761 6.78157C318.958 6.61006 319.203 6.50321 319.463 6.47558Z" fill="#0C3029"/>
<path d="M371.127 43.4295C371.26 43.4295 371.394 43.4295 371.525 43.4101L431.493 37.4828C431.862 37.4428 432.209 37.2904 432.488 37.0464C432.767 36.8023 432.963 36.4784 433.051 36.1188C433.139 35.7592 433.113 35.3813 432.978 35.0367C432.843 34.6921 432.605 34.3974 432.296 34.1928L382.056 0.689045C381.269 0.165827 380.324 -0.0706482 379.382 0.0194032L319.41 5.94426C319.04 5.98216 318.691 6.13305 318.411 6.37631C318.13 6.61956 317.932 6.94331 317.843 7.30332C317.754 7.66332 317.778 8.04201 317.913 8.38762C318.047 8.73323 318.286 9.0289 318.595 9.23423L368.846 42.738C369.521 43.1884 370.315 43.4291 371.127 43.4295ZM379.786 1.06754C380.386 1.06829 380.973 1.2455 381.473 1.57705L431.715 35.0808C431.842 35.1647 431.94 35.2864 431.994 35.4287C432.049 35.5711 432.057 35.7269 432.018 35.8742C431.985 36.0202 431.906 36.1519 431.793 36.2501C431.68 36.3482 431.538 36.4078 431.389 36.4201L371.421 42.345C370.724 42.4163 370.024 42.2449 369.44 41.8597L319.188 8.34622C319.061 8.26237 318.963 8.1407 318.908 7.99836C318.854 7.85603 318.845 7.7002 318.884 7.55285C318.918 7.40684 318.996 7.27518 319.11 7.177C319.223 7.07883 319.365 7.01926 319.514 7.00695L379.482 1.08209C379.579 1.07239 379.679 1.06754 379.786 1.06754Z" fill="#0C3029"/>
<path d="M341.845 46.6491C341.987 46.6472 342.122 46.5895 342.221 46.4887C342.321 46.3878 342.376 46.2519 342.375 46.1105L342.178 24.6093L375.862 20.8195C375.934 20.814 376.004 20.7941 376.067 20.7611C376.131 20.7281 376.187 20.6827 376.233 20.6275C376.279 20.5723 376.313 20.5084 376.334 20.4398C376.354 20.3711 376.361 20.299 376.353 20.2278C376.345 20.1566 376.322 20.0878 376.287 20.0253C376.252 19.9629 376.204 19.9082 376.147 19.8645C376.091 19.8208 376.025 19.7889 375.956 19.7708C375.887 19.7527 375.814 19.7488 375.743 19.7592L341.585 23.6024C341.452 23.6151 341.328 23.6771 341.238 23.7764C341.148 23.8756 341.098 24.0048 341.099 24.1386L341.298 46.1178C341.299 46.1885 341.314 46.2584 341.342 46.3234C341.37 46.3883 341.411 46.4472 341.461 46.4965C341.512 46.5459 341.572 46.5847 341.638 46.6109C341.704 46.6371 341.774 46.6501 341.845 46.6491Z" fill="white"/>
<path d="M341.879 44.3612C342.423 44.3761 342.94 44.5964 343.327 44.9774C343.713 45.3584 343.941 45.8718 343.963 46.4138L345.3 78.1489L336.662 77.9062L339.689 46.2997C339.74 45.7597 339.994 45.2592 340.401 44.8993C340.808 44.5395 341.336 44.3471 341.879 44.3612Z" fill="white"/>
<path d="M345.3 78.6826C345.372 78.683 345.443 78.6687 345.51 78.6407C345.576 78.6126 345.637 78.5713 345.687 78.5194C345.737 78.4674 345.776 78.4058 345.801 78.3384C345.826 78.2709 345.838 78.199 345.835 78.127L344.497 46.3919C344.516 45.6841 344.253 44.9977 343.765 44.4838C343.277 43.9698 342.604 43.6705 341.895 43.6515C341.186 43.6325 340.498 43.8955 339.983 44.3826C339.468 44.8696 339.168 45.5409 339.149 46.2488L336.123 77.8674C336.116 77.9399 336.124 78.0131 336.146 78.0824C336.169 78.1517 336.206 78.2156 336.254 78.2701C336.303 78.3251 336.362 78.3696 336.428 78.4009C336.495 78.4322 336.567 78.4496 336.64 78.4521L345.278 78.6826H345.3ZM341.821 44.8852H341.862C342.27 44.8977 342.657 45.0635 342.947 45.3492C343.237 45.635 343.408 46.0196 343.425 46.4259L344.741 77.5908L337.243 77.3967L340.224 46.341C340.262 45.9438 340.446 45.575 340.741 45.306C341.036 45.037 341.421 44.887 341.821 44.8852Z" fill="#0C3029"/>
<path d="M150.027 299.016L313.753 300.125C317.72 300.151 321.165 297.024 321.442 293.142L324.359 252.381C324.639 248.499 321.646 245.328 317.679 245.302L153.953 244.205C149.983 244.178 146.541 247.303 146.261 251.188L143.344 291.948C143.067 295.82 146.057 298.989 150.027 299.016Z" fill="white"/>
<path d="M313.801 300.649C318.019 300.649 321.68 297.305 321.977 293.169L324.894 252.408C324.972 251.439 324.847 250.464 324.529 249.546C324.211 248.627 323.705 247.784 323.044 247.07C322.358 246.336 321.528 245.752 320.605 245.354C319.682 244.957 318.686 244.755 317.681 244.76L153.955 243.661H153.902C149.687 243.661 146.025 247.007 145.729 251.141L142.812 291.902C142.734 292.871 142.857 293.845 143.175 294.764C143.493 295.683 143.999 296.526 144.659 297.24C145.345 297.973 146.175 298.557 147.098 298.954C148.021 299.351 149.017 299.553 150.022 299.547L313.748 300.646L313.801 300.649ZM153.909 244.724H153.946L317.671 245.823C318.53 245.816 319.381 245.987 320.171 246.325C320.96 246.663 321.67 247.162 322.256 247.788C322.818 248.396 323.247 249.114 323.517 249.895C323.787 250.677 323.892 251.506 323.824 252.33L320.907 293.091C320.647 296.691 317.414 299.596 313.753 299.579L150.027 298.48C149.168 298.486 148.317 298.314 147.528 297.976C146.739 297.638 146.029 297.14 145.442 296.514C144.88 295.907 144.451 295.189 144.182 294.407C143.912 293.626 143.808 292.796 143.876 291.972L146.794 251.212C147.061 247.623 150.243 244.724 153.909 244.724Z" fill="#0C3029"/>
<path d="M161.076 283.026C155.244 274.812 157.651 263.107 166.452 256.883C175.253 250.659 187.115 252.273 192.947 260.487C198.779 268.701 196.372 280.406 187.571 286.629C178.77 292.853 166.907 291.24 161.076 283.026Z" fill="#0C3029"/>
<path d="M179.282 281.341C179.336 281.341 179.39 281.333 179.442 281.316C179.529 281.289 179.608 281.239 179.671 281.173C179.733 281.106 179.777 281.024 179.799 280.936L184.195 263.117C184.217 263.024 184.214 262.927 184.187 262.835C184.159 262.743 184.107 262.661 184.037 262.596C183.966 262.531 183.879 262.487 183.786 262.467C183.692 262.447 183.595 262.453 183.504 262.484L165.627 268.562C165.538 268.592 165.458 268.645 165.396 268.716C165.334 268.786 165.292 268.872 165.274 268.964C165.256 269.056 165.262 269.151 165.292 269.24C165.323 269.328 165.376 269.408 165.447 269.469L178.929 281.2C179.026 281.288 179.151 281.338 179.282 281.341ZM182.928 263.811L178.975 279.824L166.854 269.268L182.928 263.811Z" fill="white"/>
<path d="M180.56 262.969C180.53 263.365 180.582 263.763 180.715 264.137C180.847 264.512 181.057 264.854 181.329 265.143C181.602 265.432 181.932 265.661 182.299 265.815C182.666 265.969 183.06 266.045 183.458 266.038C184.292 266.04 185.097 265.73 185.713 265.17C186.33 264.61 186.714 263.839 186.791 263.011C186.821 262.615 186.769 262.217 186.636 261.843C186.504 261.468 186.295 261.126 186.022 260.837C185.749 260.548 185.419 260.319 185.052 260.165C184.686 260.01 184.291 259.934 183.893 259.941C183.059 259.94 182.255 260.249 181.638 260.81C181.021 261.37 180.637 262.14 180.56 262.969Z" fill="white"/>
<path d="M183.478 266.572C184.442 266.566 185.37 266.201 186.081 265.55C186.791 264.899 187.234 264.008 187.323 263.049C187.361 262.588 187.302 262.124 187.15 261.686C186.999 261.248 186.758 260.847 186.443 260.507C186.119 260.158 185.725 259.88 185.286 259.69C184.848 259.501 184.375 259.405 183.898 259.408C182.929 259.408 181.996 259.77 181.28 260.421C180.564 261.073 180.118 261.968 180.028 262.931C179.99 263.392 180.048 263.857 180.2 264.294C180.351 264.732 180.593 265.133 180.908 265.473C181.233 265.822 181.627 266.1 182.065 266.289C182.503 266.478 182.976 266.574 183.453 266.572H183.478ZM183.871 260.475H183.891C184.222 260.473 184.55 260.539 184.854 260.669C185.158 260.799 185.432 260.991 185.658 261.232C185.873 261.465 186.038 261.74 186.14 262.039C186.243 262.339 186.283 262.656 186.256 262.972C186.194 263.667 185.872 264.314 185.354 264.783C184.836 265.252 184.16 265.51 183.461 265.505C183.13 265.507 182.802 265.441 182.497 265.311C182.193 265.181 181.919 264.989 181.693 264.748C181.478 264.515 181.314 264.24 181.211 263.941C181.108 263.641 181.069 263.324 181.095 263.008C181.16 262.317 181.481 261.675 181.994 261.207C182.507 260.739 183.176 260.478 183.871 260.475Z" fill="#0C3029"/>
<path d="M175.21 280.78C175.17 281.297 175.238 281.816 175.41 282.304C175.583 282.792 175.855 283.24 176.211 283.617C176.566 283.994 176.996 284.294 177.474 284.496C177.952 284.698 178.466 284.798 178.985 284.791C180.074 284.791 181.125 284.385 181.93 283.653C182.736 282.922 183.239 281.916 183.341 280.834C183.381 280.316 183.313 279.797 183.14 279.308C182.967 278.818 182.694 278.371 182.337 277.993C181.981 277.616 181.549 277.317 181.071 277.115C180.592 276.914 180.076 276.814 179.556 276.823C178.469 276.826 177.421 277.232 176.617 277.964C175.814 278.695 175.312 279.699 175.21 280.78Z" fill="white"/>
<path d="M179.024 285.325C181.53 285.325 183.708 283.335 183.886 280.873C183.933 280.292 183.859 279.707 183.668 279.156C183.477 278.605 183.174 278.1 182.777 277.672C182.368 277.233 181.871 276.883 181.32 276.645C180.768 276.407 180.172 276.286 179.571 276.289H179.539C177.03 276.289 174.852 278.279 174.677 280.742C174.631 281.322 174.705 281.907 174.896 282.457C175.087 283.008 175.39 283.514 175.786 283.942C176.196 284.381 176.693 284.731 177.245 284.969C177.797 285.207 178.393 285.328 178.995 285.325H179.024ZM179.539 277.357H179.564C180.019 277.353 180.469 277.444 180.888 277.623C181.306 277.801 181.683 278.064 181.995 278.395C182.292 278.717 182.518 279.096 182.661 279.51C182.803 279.923 182.858 280.362 182.821 280.797C182.731 281.741 182.293 282.618 181.592 283.257C180.891 283.897 179.976 284.253 179.026 284.257H179.002C178.547 284.261 178.096 284.17 177.677 283.991C177.259 283.812 176.882 283.548 176.571 283.216C176.275 282.896 176.048 282.517 175.906 282.104C175.764 281.692 175.709 281.254 175.744 280.819C175.834 279.875 176.272 278.998 176.974 278.358C177.675 277.719 178.589 277.362 179.539 277.357Z" fill="#0C3029"/>
<path d="M162.683 269.045C162.652 269.44 162.705 269.838 162.837 270.213C162.97 270.587 163.179 270.93 163.452 271.218C163.725 271.507 164.055 271.736 164.421 271.89C164.788 272.045 165.183 272.121 165.58 272.114C166.414 272.116 167.219 271.807 167.836 271.247C168.452 270.687 168.837 269.917 168.913 269.088C168.944 268.692 168.891 268.295 168.759 267.92C168.626 267.546 168.417 267.203 168.144 266.914C167.871 266.625 167.541 266.397 167.175 266.242C166.808 266.088 166.413 266.012 166.016 266.019C165.182 266.017 164.378 266.327 163.761 266.887C163.144 267.446 162.76 268.216 162.683 269.045Z" fill="white"/>
<path d="M165.6 272.648C166.565 272.641 167.492 272.277 168.203 271.626C168.914 270.975 169.357 270.083 169.446 269.125C169.483 268.663 169.424 268.199 169.273 267.761C169.121 267.324 168.881 266.922 168.566 266.582C168.241 266.233 167.847 265.956 167.409 265.767C166.97 265.578 166.498 265.482 166.021 265.485C164.044 265.485 162.289 267.053 162.15 269.008C162.112 269.47 162.171 269.934 162.323 270.372C162.474 270.81 162.715 271.211 163.03 271.551C163.355 271.9 163.749 272.177 164.188 272.366C164.626 272.555 165.098 272.651 165.576 272.648H165.6ZM165.994 266.553H166.013C166.344 266.55 166.672 266.615 166.976 266.745C167.28 266.875 167.554 267.067 167.781 267.307C167.996 267.541 168.16 267.816 168.263 268.116C168.366 268.416 168.405 268.734 168.379 269.049C168.313 269.74 167.992 270.382 167.478 270.85C166.965 271.317 166.295 271.578 165.6 271.58H165.583C165.252 271.583 164.924 271.517 164.62 271.387C164.316 271.258 164.042 271.066 163.816 270.825C163.601 270.592 163.436 270.317 163.333 270.017C163.23 269.717 163.191 269.399 163.218 269.083C163.283 268.393 163.603 267.751 164.116 267.283C164.63 266.816 165.299 266.555 165.994 266.553Z" fill="#0C3029"/>
<path d="M304.928 264.238C305.07 264.238 305.206 264.182 305.306 264.082C305.406 263.982 305.463 263.846 305.463 263.705C305.463 263.563 305.406 263.427 305.306 263.327C305.206 263.227 305.07 263.171 304.928 263.171L214.184 262.562C214.048 262.571 213.92 262.631 213.827 262.731C213.734 262.83 213.682 262.961 213.682 263.097C213.682 263.233 213.734 263.364 213.827 263.463C213.92 263.562 214.048 263.623 214.184 263.632L304.911 264.238H304.928Z" fill="#0C3029"/>
<path d="M238.158 272.708C238.299 272.708 238.435 272.651 238.535 272.552C238.635 272.453 238.692 272.318 238.693 272.177C238.694 272.107 238.68 272.037 238.654 271.972C238.627 271.907 238.588 271.848 238.539 271.798C238.489 271.748 238.43 271.708 238.365 271.681C238.3 271.654 238.231 271.641 238.161 271.641L225.967 271.558C225.825 271.558 225.689 271.614 225.588 271.714C225.488 271.815 225.432 271.95 225.432 272.092C225.432 272.233 225.488 272.369 225.588 272.469C225.689 272.569 225.825 272.626 225.967 272.626L238.161 272.708H238.158Z" fill="#0C3029"/>
<path d="M304.289 273.159C304.425 273.15 304.552 273.09 304.645 272.991C304.738 272.891 304.79 272.76 304.79 272.624C304.79 272.488 304.738 272.358 304.645 272.258C304.552 272.159 304.425 272.099 304.289 272.089L260.531 271.796C260.395 271.805 260.267 271.865 260.174 271.965C260.081 272.064 260.029 272.195 260.029 272.331C260.029 272.467 260.081 272.598 260.174 272.697C260.267 272.796 260.395 272.857 260.531 272.866L304.289 273.159Z" fill="#0C3029"/>
<path d="M259.889 281.785C260.025 281.776 260.152 281.715 260.245 281.616C260.338 281.517 260.39 281.386 260.39 281.25C260.39 281.114 260.338 280.983 260.245 280.884C260.152 280.784 260.025 280.724 259.889 280.715L243.48 280.606C243.338 280.606 243.202 280.662 243.101 280.762C243.001 280.862 242.945 280.998 242.945 281.139C242.945 281.281 243.001 281.417 243.101 281.517C243.202 281.617 243.338 281.673 243.48 281.673L259.889 281.785Z" fill="#0C3029"/>
<path d="M303.647 282.078C303.783 282.069 303.91 282.009 304.003 281.91C304.096 281.81 304.148 281.679 304.148 281.543C304.148 281.407 304.096 281.276 304.003 281.177C303.91 281.078 303.783 281.017 303.647 281.008L278.539 280.841C278.398 280.841 278.262 280.897 278.161 280.997C278.061 281.097 278.005 281.233 278.005 281.375C278.005 281.516 278.061 281.652 278.161 281.752C278.262 281.852 278.398 281.908 278.539 281.908L303.647 282.078Z" fill="#0C3029"/>
<path d="M243.528 162.344L407.208 163.489C411.175 163.516 414.744 160.255 415.198 156.21L419.878 113.691C420.323 109.639 417.469 106.334 413.501 106.305L249.822 105.16C245.855 105.133 242.286 108.394 241.831 112.439L237.152 154.954C236.707 159.01 239.561 162.315 243.528 162.344Z" fill="white"/>
<path d="M407.256 164.013C411.464 164.013 415.259 160.544 415.731 156.249L420.41 113.749C420.542 112.733 420.455 111.7 420.157 110.719C419.86 109.738 419.357 108.832 418.682 108.059C418.029 107.336 417.23 106.759 416.338 106.367C415.445 105.974 414.479 105.776 413.504 105.784L249.827 104.638H249.773C245.565 104.638 241.771 108.108 241.299 112.402L236.619 154.917C236.488 155.933 236.575 156.966 236.873 157.946C237.172 158.926 237.675 159.832 238.35 160.604C239.001 161.33 239.798 161.91 240.69 162.304C241.582 162.699 242.548 162.901 243.523 162.895L407.203 164.013H407.256ZM249.771 105.684H249.82L413.497 106.829C414.322 106.825 415.139 106.997 415.893 107.331C416.648 107.666 417.322 108.156 417.872 108.77C418.445 109.431 418.871 110.204 419.122 111.041C419.374 111.877 419.445 112.757 419.331 113.623L414.651 156.138C414.236 159.918 410.891 162.982 407.196 162.946L243.518 161.798C242.694 161.804 241.877 161.636 241.123 161.303C240.368 160.97 239.693 160.482 239.143 159.869C238.57 159.209 238.143 158.435 237.892 157.599C237.641 156.763 237.57 155.882 237.684 155.017L242.364 112.502C242.777 108.739 246.095 105.694 249.771 105.694V105.684Z" fill="#0C3029"/>
<path d="M399.951 126.05C400.087 126.041 400.214 125.98 400.307 125.881C400.4 125.782 400.452 125.651 400.452 125.515C400.452 125.379 400.4 125.248 400.307 125.149C400.214 125.049 400.087 124.989 399.951 124.98L309.233 124.347C309.091 124.347 308.955 124.403 308.855 124.503C308.755 124.603 308.698 124.739 308.698 124.88C308.698 125.022 308.755 125.158 308.855 125.258C308.955 125.358 309.091 125.414 309.233 125.414L399.951 126.05Z" fill="#0C3029"/>
<path d="M321.743 134.811C321.885 134.811 322.021 134.755 322.121 134.655C322.222 134.555 322.278 134.419 322.278 134.277C322.278 134.136 322.222 134 322.121 133.9C322.021 133.8 321.885 133.743 321.743 133.743L314.975 133.695C314.839 133.704 314.712 133.764 314.619 133.864C314.526 133.963 314.474 134.094 314.474 134.23C314.474 134.366 314.526 134.497 314.619 134.596C314.712 134.695 314.839 134.756 314.975 134.765L321.743 134.811Z" fill="#0C3029"/>
<path d="M361.553 135.09C361.695 135.09 361.831 135.034 361.932 134.934C362.032 134.834 362.088 134.698 362.088 134.556C362.088 134.415 362.032 134.279 361.932 134.179C361.831 134.079 361.695 134.023 361.553 134.023L328.523 133.78C328.382 133.78 328.246 133.836 328.145 133.936C328.045 134.036 327.989 134.172 327.989 134.314C327.989 134.455 328.045 134.591 328.145 134.691C328.246 134.791 328.382 134.847 328.523 134.847L361.553 135.09Z" fill="#0C3029"/>
<path d="M398.928 135.352C399.069 135.352 399.205 135.296 399.306 135.196C399.406 135.096 399.462 134.96 399.462 134.818C399.462 134.677 399.406 134.541 399.306 134.441C399.205 134.341 399.069 134.284 398.928 134.284L386.376 134.195C386.234 134.195 386.098 134.251 385.998 134.351C385.898 134.451 385.841 134.587 385.841 134.728C385.841 134.87 385.898 135.006 385.998 135.106C386.098 135.206 386.234 135.262 386.376 135.262L398.928 135.352Z" fill="#0C3029"/>
<path d="M345.956 144.29C346.098 144.29 346.234 144.234 346.334 144.134C346.435 144.034 346.491 143.898 346.491 143.757C346.491 143.615 346.435 143.479 346.334 143.379C346.234 143.279 346.098 143.223 345.956 143.223L325.696 143.08C325.554 143.08 325.418 143.136 325.318 143.236C325.218 143.336 325.161 143.472 325.161 143.613C325.161 143.755 325.218 143.891 325.318 143.991C325.418 144.091 325.554 144.147 325.696 144.147L345.956 144.29Z" fill="#0C3029"/>
<path d="M397.902 144.654C398.044 144.654 398.18 144.598 398.28 144.498C398.38 144.398 398.437 144.262 398.437 144.12C398.437 143.979 398.38 143.843 398.28 143.743C398.18 143.643 398.044 143.587 397.902 143.587L369.216 143.385C369.074 143.385 368.938 143.442 368.838 143.542C368.737 143.642 368.681 143.777 368.681 143.919C368.681 144.061 368.737 144.196 368.838 144.296C368.938 144.397 369.074 144.453 369.216 144.453L397.902 144.654Z" fill="#0C3029"/>
<path d="M258.444 149.533C250.768 142.98 250.465 130.76 257.768 122.238C265.07 113.717 277.213 112.12 284.89 118.673C292.566 125.225 292.869 137.445 285.566 145.967C278.263 154.489 266.121 156.085 258.444 149.533Z" fill="#0C3029"/>
<path d="M268.667 130.866L269.506 123.252L276.211 123.301L275.372 130.922C278.423 132.29 280.324 135.532 279.911 139.273C279.364 144.239 274.978 148.235 270.114 148.201C265.249 148.167 261.751 144.116 262.298 139.152C262.519 137.328 263.226 135.597 264.347 134.139C265.467 132.682 266.959 131.551 268.667 130.866Z" fill="white"/>
<path d="M270.177 148.728C275.282 148.728 279.869 144.523 280.443 139.324C280.856 135.573 279.099 132.191 275.946 130.589L276.743 123.345C276.751 123.27 276.744 123.195 276.721 123.124C276.698 123.052 276.66 122.987 276.61 122.931C276.56 122.875 276.499 122.83 276.431 122.8C276.362 122.769 276.288 122.753 276.213 122.753L269.511 122.704C269.378 122.708 269.251 122.759 269.152 122.848C269.054 122.937 268.99 123.058 268.973 123.189L268.169 130.497C266.444 131.248 264.945 132.435 263.822 133.942C262.698 135.449 261.99 137.223 261.766 139.088C261.481 141.689 262.223 144.133 263.859 145.967C264.645 146.843 265.61 147.542 266.687 148.018C267.765 148.494 268.932 148.736 270.111 148.728H270.177ZM275.615 123.823L274.839 130.859C274.827 130.971 274.851 131.085 274.907 131.183C274.963 131.281 275.05 131.358 275.153 131.405C278.097 132.724 279.755 135.789 279.378 139.21C278.863 143.883 274.742 147.663 270.177 147.663H270.118C269.089 147.671 268.07 147.461 267.129 147.046C266.188 146.631 265.345 146.021 264.658 145.256C263.227 143.652 262.578 141.503 262.83 139.205C263.038 137.478 263.708 135.839 264.77 134.46C265.832 133.081 267.246 132.013 268.864 131.368C268.954 131.332 269.033 131.272 269.093 131.195C269.152 131.117 269.189 131.026 269.2 130.929L269.985 123.786L275.615 123.823Z" fill="#0C3029"/>
<path d="M268.541 124.667L276.862 124.725C277.213 124.717 277.549 124.582 277.809 124.345C278.068 124.109 278.234 123.787 278.275 123.439L278.372 122.559C278.396 122.397 278.385 122.232 278.339 122.075C278.293 121.917 278.214 121.772 278.107 121.648C278 121.524 277.868 121.425 277.719 121.357C277.57 121.288 277.408 121.253 277.244 121.253L268.922 121.195C268.571 121.204 268.235 121.339 267.976 121.575C267.716 121.811 267.551 122.133 267.51 122.481L267.413 123.362C267.389 123.524 267.4 123.689 267.445 123.846C267.491 124.003 267.57 124.148 267.677 124.272C267.784 124.396 267.917 124.496 268.066 124.564C268.215 124.632 268.377 124.667 268.541 124.667Z" fill="white"/>
<path d="M276.872 125.259C277.356 125.253 277.82 125.071 278.179 124.746C278.537 124.422 278.764 123.977 278.817 123.498L278.911 122.617C278.941 122.376 278.919 122.132 278.848 121.9C278.777 121.668 278.658 121.453 278.498 121.27C278.342 121.096 278.15 120.957 277.936 120.862C277.722 120.767 277.49 120.718 277.256 120.719L268.937 120.661C268.453 120.668 267.989 120.85 267.631 121.175C267.273 121.499 267.046 121.943 266.992 122.423L266.895 123.303C266.866 123.544 266.889 123.789 266.96 124.021C267.032 124.252 267.151 124.467 267.311 124.65C267.466 124.824 267.658 124.963 267.871 125.058C268.085 125.153 268.317 125.202 268.55 125.201L276.872 125.259ZM268.915 121.729L277.234 121.787C277.319 121.785 277.402 121.802 277.48 121.835C277.558 121.869 277.627 121.919 277.684 121.981C277.744 122.052 277.789 122.135 277.815 122.225C277.841 122.314 277.848 122.408 277.834 122.5L277.737 123.381C277.711 123.597 277.609 123.796 277.45 123.944C277.291 124.092 277.084 124.18 276.867 124.191L268.546 124.133C268.462 124.135 268.378 124.118 268.301 124.085C268.224 124.051 268.155 124.001 268.098 123.939C268.038 123.868 267.993 123.785 267.967 123.696C267.941 123.606 267.935 123.512 267.948 123.42L268.045 122.542C268.071 122.326 268.172 122.126 268.332 121.977C268.491 121.828 268.697 121.74 268.915 121.729Z" fill="#0C3029"/>
<path d="M278.078 138.623C278.219 138.623 278.355 138.566 278.456 138.466C278.556 138.366 278.612 138.23 278.612 138.089C278.612 137.947 278.556 137.812 278.456 137.711C278.355 137.611 278.219 137.555 278.078 137.555L264.52 137.46C264.378 137.46 264.242 137.517 264.142 137.617C264.041 137.717 263.985 137.853 263.985 137.994C263.985 138.136 264.041 138.272 264.142 138.372C264.242 138.472 264.378 138.528 264.52 138.528L278.078 138.623Z" fill="#0C3029"/>
<path d="M254.084 228.978C258.289 228.978 262.084 225.511 262.558 221.214L267.23 178.704C267.361 177.688 267.275 176.655 266.976 175.675C266.678 174.695 266.175 173.789 265.5 173.017C264.848 172.292 264.05 171.713 263.158 171.318C262.266 170.924 261.3 170.723 260.324 170.729L96.6445 169.581H96.5934C92.3854 169.581 88.5906 173.051 88.119 177.345L83.4466 219.858C83.3158 220.874 83.4024 221.906 83.7007 222.886C83.9991 223.867 84.5024 224.773 85.1774 225.545C85.8283 226.27 86.626 226.849 87.5178 227.243C88.4096 227.638 89.3752 227.839 90.3506 227.833L254.03 228.978H254.084ZM96.5983 170.651H96.6445L260.324 171.796C261.149 171.793 261.966 171.964 262.721 172.298C263.475 172.633 264.149 173.123 264.7 173.737C265.272 174.398 265.698 175.172 265.949 176.008C266.201 176.844 266.272 177.724 266.158 178.59L261.479 221.105C261.063 224.885 257.718 227.922 254.023 227.913L90.3433 226.768C89.5177 226.772 88.7006 226.602 87.9461 226.267C87.1917 225.932 86.5172 225.441 85.9675 224.827C85.3943 224.167 84.9678 223.393 84.7164 222.557C84.465 221.72 84.3943 220.84 84.5089 219.974L89.1886 177.459C89.6043 173.694 92.9275 170.651 96.5983 170.651Z" fill="#0C3029"/>
<path d="M246.778 191.005C246.92 191.005 247.056 190.949 247.157 190.849C247.257 190.749 247.313 190.613 247.313 190.471C247.313 190.33 247.257 190.194 247.157 190.094C247.056 189.994 246.92 189.937 246.778 189.937L156.061 189.302C155.919 189.302 155.783 189.358 155.683 189.458C155.582 189.558 155.526 189.694 155.526 189.836C155.526 189.977 155.582 190.113 155.683 190.213C155.783 190.313 155.919 190.369 156.061 190.369L246.778 191.005Z" fill="#0C3029"/>
<path d="M168.571 199.766C168.713 199.766 168.849 199.71 168.949 199.61C169.049 199.51 169.105 199.374 169.105 199.232C169.105 199.091 169.049 198.955 168.949 198.855C168.849 198.755 168.713 198.698 168.571 198.698L161.803 198.652C161.661 198.652 161.525 198.709 161.425 198.809C161.324 198.909 161.268 199.045 161.268 199.186C161.268 199.328 161.324 199.463 161.425 199.564C161.525 199.664 161.661 199.72 161.803 199.72L168.571 199.766Z" fill="#0C3029"/>
<path d="M208.373 200.045C208.515 200.045 208.651 199.989 208.752 199.889C208.852 199.789 208.908 199.653 208.908 199.511C208.908 199.37 208.852 199.234 208.752 199.134C208.651 199.034 208.515 198.978 208.373 198.978L175.343 198.747C175.202 198.747 175.066 198.803 174.965 198.903C174.865 199.003 174.809 199.139 174.809 199.281C174.809 199.422 174.865 199.558 174.965 199.658C175.066 199.758 175.202 199.815 175.343 199.815L208.373 200.057V200.045Z" fill="#0C3029"/>
<path d="M245.753 200.307C245.894 200.307 246.03 200.251 246.131 200.151C246.231 200.051 246.287 199.915 246.287 199.773C246.287 199.632 246.231 199.496 246.131 199.396C246.03 199.296 245.894 199.24 245.753 199.24L233.201 199.152C233.059 199.152 232.923 199.208 232.823 199.309C232.723 199.409 232.666 199.544 232.666 199.686C232.666 199.828 232.723 199.963 232.823 200.063C232.923 200.164 233.059 200.22 233.201 200.22L245.753 200.307Z" fill="#0C3029"/>
<path d="M192.781 209.245C192.923 209.245 193.059 209.189 193.159 209.089C193.259 208.989 193.316 208.853 193.316 208.711C193.316 208.57 193.259 208.434 193.159 208.334C193.059 208.234 192.923 208.178 192.781 208.178L172.521 208.037C172.379 208.037 172.243 208.093 172.143 208.193C172.043 208.293 171.986 208.429 171.986 208.571C171.986 208.712 172.043 208.848 172.143 208.948C172.243 209.048 172.379 209.105 172.521 209.105L192.781 209.245Z" fill="#0C3029"/>
<path d="M244.729 209.609C244.871 209.609 245.007 209.553 245.107 209.453C245.208 209.353 245.264 209.217 245.264 209.075C245.264 208.934 245.208 208.798 245.107 208.698C245.007 208.598 244.871 208.542 244.729 208.542L216.043 208.34C215.907 208.349 215.78 208.41 215.687 208.509C215.594 208.608 215.542 208.739 215.542 208.875C215.542 209.011 215.594 209.142 215.687 209.242C215.78 209.341 215.907 209.401 216.043 209.41L244.729 209.609Z" fill="#0C3029"/>
<path d="M116.508 218.877C127.231 218.877 136.907 210.024 138.113 199.075C138.713 193.618 137.16 188.501 133.737 184.663C130.45 180.975 125.804 178.922 120.663 178.888H120.527C109.801 178.888 100.126 187.744 98.9199 198.694C98.3195 204.15 99.8729 209.267 103.296 213.105C106.585 216.793 111.228 218.843 116.372 218.88L116.508 218.877ZM120.527 179.956H120.641C125.476 179.99 129.84 181.914 132.925 185.374C136.141 188.981 137.602 193.807 137.036 198.96C135.888 209.393 126.687 217.812 116.494 217.812H116.365C111.527 217.778 107.166 215.854 104.081 212.395C100.862 208.787 99.4037 203.961 99.9701 198.808C101.127 188.385 110.326 179.956 120.522 179.956H120.527Z" fill="#0C3029"/>
<path d="M35.3128 130.604L198.99 131.744C202.957 131.771 206.526 128.51 206.981 124.466L211.66 81.9507C212.105 77.8989 209.251 74.5944 205.284 74.5653L41.6042 73.4201C37.6368 73.3934 34.0681 76.6542 33.6135 80.6988L28.9338 123.214C28.489 127.27 31.343 130.575 35.3128 130.604Z" fill="white"/>
<path d="M191.733 94.31C191.869 94.3009 191.996 94.2406 192.089 94.1412C192.183 94.0419 192.234 93.911 192.234 93.775C192.234 93.6391 192.183 93.5082 192.089 93.4089C191.996 93.3095 191.869 93.2492 191.733 93.2401L101.015 92.6068C100.874 92.6068 100.738 92.663 100.637 92.7631C100.537 92.8632 100.481 92.999 100.481 93.1406C100.481 93.2821 100.537 93.4179 100.637 93.518C100.738 93.6181 100.874 93.6744 101.015 93.6744L191.733 94.31Z" fill="#0C3029"/>
<path d="M113.525 103.071C113.667 103.071 113.803 103.015 113.904 102.915C114.004 102.815 114.06 102.679 114.06 102.537C114.06 102.396 114.004 102.26 113.904 102.16C113.803 102.06 113.667 102.003 113.525 102.003L106.758 101.955C106.622 101.964 106.494 102.024 106.401 102.124C106.308 102.223 106.256 102.354 106.256 102.49C106.256 102.626 106.308 102.757 106.401 102.856C106.494 102.955 106.622 103.016 106.758 103.025L113.525 103.071Z" fill="#0C3029"/>
<path d="M153.328 103.357C153.47 103.357 153.606 103.301 153.706 103.201C153.807 103.101 153.863 102.965 153.863 102.824C153.863 102.682 153.807 102.546 153.706 102.446C153.606 102.346 153.47 102.29 153.328 102.29L120.298 102.047C120.162 102.056 120.035 102.117 119.942 102.216C119.849 102.315 119.797 102.446 119.797 102.582C119.797 102.718 119.849 102.849 119.942 102.948C120.035 103.048 120.162 103.108 120.298 103.117L153.328 103.36V103.357Z" fill="#0C3029"/>
<path d="M190.707 103.612C190.849 103.612 190.985 103.556 191.085 103.456C191.186 103.356 191.242 103.22 191.242 103.078C191.242 102.937 191.186 102.801 191.085 102.701C190.985 102.601 190.849 102.545 190.707 102.545L178.156 102.455C178.014 102.455 177.878 102.511 177.778 102.611C177.678 102.711 177.621 102.847 177.621 102.989C177.621 103.13 177.678 103.266 177.778 103.366C177.878 103.466 178.014 103.522 178.156 103.522L190.707 103.612Z" fill="#0C3029"/>
<path d="M137.738 112.55C137.88 112.55 138.016 112.494 138.116 112.394C138.217 112.294 138.273 112.158 138.273 112.017C138.273 111.875 138.217 111.739 138.116 111.639C138.016 111.539 137.88 111.483 137.738 111.483L117.478 111.34C117.336 111.34 117.2 111.396 117.1 111.496C117 111.596 116.943 111.732 116.943 111.873C116.943 112.015 117 112.151 117.1 112.251C117.2 112.351 117.336 112.407 117.478 112.407L137.738 112.55Z" fill="#0C3029"/>
<path d="M189.681 112.914C189.823 112.914 189.959 112.858 190.06 112.758C190.16 112.658 190.216 112.522 190.216 112.381C190.216 112.239 190.16 112.103 190.06 112.003C189.959 111.903 189.823 111.847 189.681 111.847L160.996 111.645C160.854 111.645 160.718 111.702 160.617 111.802C160.517 111.902 160.461 112.038 160.461 112.179C160.461 112.321 160.517 112.456 160.617 112.557C160.718 112.657 160.854 112.713 160.996 112.713L189.681 112.914Z" fill="#0C3029"/>
<path d="M50.2365 117.608C42.5641 111.052 42.2678 98.8326 49.5747 90.3151C56.8817 81.7977 69.0248 80.2078 76.6972 86.764C84.3696 93.3202 84.6659 105.54 77.359 114.057C70.0521 122.575 57.9089 124.165 50.2365 117.608Z" fill="#0C3029"/>
<path d="M67.5308 102.219H71.875L72.2713 104.612H75.6674L72.7769 91.8134H69.7965L63.0091 104.612H66.4125L67.5308 102.219ZM71.4739 99.8369H68.6491L70.7373 95.3993L71.4739 99.8369Z" fill="white"/>
<path d="M61.2978 102.072C60.8815 102.064 60.475 102.198 60.1455 102.452C59.9889 102.568 59.8568 102.713 59.7566 102.88C59.6565 103.046 59.5904 103.231 59.562 103.423C59.5269 103.596 59.5349 103.775 59.5853 103.944C59.6358 104.113 59.7271 104.268 59.8513 104.393C59.9894 104.524 60.1527 104.625 60.3311 104.69C60.5096 104.756 60.6995 104.784 60.8894 104.774C61.3082 104.783 61.7171 104.647 62.0465 104.389C62.2021 104.273 62.3333 104.127 62.4326 103.961C62.5318 103.794 62.5973 103.61 62.6251 103.418C62.6602 103.245 62.6527 103.067 62.6031 102.898C62.5536 102.729 62.4635 102.574 62.3407 102.448C62.2018 102.317 62.0376 102.216 61.8583 102.152C61.6789 102.087 61.4881 102.06 61.2978 102.072Z" fill="white"/>
<path d="M57.5322 102.071C57.1157 102.063 56.709 102.198 56.3799 102.452C56.2226 102.567 56.09 102.712 55.9898 102.879C55.8895 103.045 55.8238 103.23 55.7964 103.423C55.7613 103.596 55.7692 103.775 55.8197 103.944C55.8701 104.113 55.9615 104.268 56.0857 104.393C56.2238 104.524 56.3871 104.625 56.5655 104.69C56.744 104.756 56.9339 104.784 57.1237 104.774C57.5425 104.783 57.9513 104.646 58.2809 104.389C58.5943 104.154 58.8022 103.805 58.8595 103.418C58.8943 103.245 58.8864 103.066 58.8364 102.897C58.7864 102.728 58.6959 102.574 58.5726 102.448C58.4344 102.317 58.2706 102.216 58.0916 102.151C57.9126 102.087 57.7222 102.059 57.5322 102.071Z" fill="white"/>
<path d="M53.7665 102.071C53.3493 102.064 52.942 102.198 52.6117 102.452C52.4552 102.568 52.323 102.713 52.2229 102.879C52.1227 103.046 52.0566 103.231 52.0283 103.423C51.9938 103.596 52.0021 103.775 52.0525 103.944C52.1029 104.113 52.1939 104.267 52.3176 104.393C52.4559 104.523 52.6191 104.624 52.7975 104.69C52.9759 104.755 53.1658 104.784 53.3556 104.774C53.7751 104.783 54.1847 104.646 54.5152 104.388C54.8278 104.153 55.0355 103.805 55.0938 103.418C55.1286 103.245 55.1207 103.066 55.0707 102.897C55.0207 102.728 54.9302 102.574 54.8069 102.447C54.6686 102.317 54.5049 102.216 54.3259 102.152C54.1469 102.087 53.9565 102.06 53.7665 102.071Z" fill="white"/>
<path d="M55.7332 111.068H52.5559L52.3128 112.701H58.2395L58.417 111.519L55.9228 107.54H58.8837L59.1268 105.907H53.4067L53.2341 107.05L55.7332 111.068Z" fill="white"/>
<path d="M199.038 132.283C203.244 132.283 207.039 128.813 207.513 124.519L212.193 82.0065C212.324 80.9898 212.237 79.9568 211.938 78.976C211.639 77.9952 211.135 77.0889 210.459 76.317C209.808 75.5918 209.011 75.0128 208.119 74.6183C207.227 74.2239 206.261 74.0231 205.286 74.0291L41.6066 72.8839H41.5555C37.3475 72.8839 33.5526 76.3534 33.081 80.6478L28.4014 123.163C28.2705 124.179 28.3571 125.212 28.6555 126.193C28.9538 127.173 29.4571 128.08 30.1322 128.852C30.7841 129.578 31.5831 130.157 32.4762 130.551C33.3694 130.945 34.3362 131.145 35.3127 131.138L172.988 132.108C173.13 132.108 173.266 132.052 173.366 131.952C173.466 131.852 173.523 131.716 173.523 131.574C173.523 131.433 173.466 131.297 173.366 131.197C173.266 131.097 173.13 131.041 172.988 131.041L35.3127 130.07C34.4873 130.074 33.6704 129.903 32.9161 129.568C32.1618 129.234 31.4872 128.743 30.9369 128.129C30.3639 127.469 29.9377 126.695 29.6862 125.859C29.4348 125.023 29.3639 124.142 29.4783 123.277L34.1458 80.7619C34.5591 76.9988 37.8774 73.9539 41.5531 73.9539H41.5993L205.279 75.0991C206.104 75.0952 206.921 75.2663 207.675 75.6009C208.43 75.9355 209.104 76.426 209.655 77.04C210.227 77.7003 210.653 78.4741 210.904 79.3104C211.156 80.1468 211.227 81.0267 211.113 81.8925L206.455 124.407C206.042 128.17 202.724 131.215 199.046 131.215H198.999L189.942 131.152C189.8 131.152 189.664 131.208 189.563 131.309C189.463 131.409 189.407 131.544 189.407 131.686C189.407 131.828 189.463 131.963 189.563 132.063C189.664 132.164 189.8 132.22 189.942 132.22L198.999 132.283H199.038Z" fill="#0C3029"/>
<path d="M63.0408 386.278C62.715 386.787 50.2221 404.613 50.2221 404.613C50.2221 404.613 50.5381 409.155 53.7762 410.04L68.6296 393.998L63.0408 386.278Z" fill="white"/>
<path d="M53.7762 410.574C53.8498 410.574 53.9227 410.558 53.9901 410.529C54.0575 410.499 54.1179 410.456 54.1676 410.402L69.0235 394.359C69.1073 394.269 69.1571 394.152 69.1642 394.029C69.1713 393.906 69.1352 393.784 69.0623 393.685L63.471 385.965C63.4193 385.895 63.3514 385.838 63.2731 385.799C63.1949 385.761 63.1085 385.742 63.0213 385.744C62.9345 385.746 62.8496 385.769 62.7738 385.812C62.6981 385.854 62.6336 385.914 62.5861 385.986C62.343 386.382 54.0971 398.139 49.7796 404.302C49.7089 404.401 49.6754 404.523 49.6848 404.644C49.6848 404.845 50.0665 409.577 53.6303 410.55C53.6776 410.564 53.7267 410.572 53.7762 410.574ZM67.9392 393.957L53.6158 409.426C51.3768 408.575 50.8687 405.544 50.7763 404.756C51.9651 403.057 60.9355 390.257 63.0529 387.207L67.9392 393.957Z" fill="#0C3029"/>
<path d="M43.4177 407.745C43.4177 407.745 44.4825 421.817 50.7108 429.227C56.939 436.636 66.9328 434.266 66.9328 434.266C66.9328 434.266 67.6913 428.001 66.3932 426.373C65.095 424.745 57.9308 416.038 57.9503 408.211L54.1433 403.036L51.8971 405.947L50.9247 401.204L43.4177 407.745Z" fill="white"/>
<path d="M63.2449 435.144C64.5237 435.156 65.8003 435.036 67.0543 434.785C67.1605 434.76 67.2565 434.704 67.3292 434.622C67.4018 434.541 67.4476 434.44 67.4603 434.331C67.5405 433.667 68.2066 427.781 66.8112 426.041L66.6702 425.864C59.8877 417.384 58.4753 411.586 58.4826 408.211C58.4826 408.097 58.4469 407.987 58.3805 407.895L54.5735 402.72C54.5243 402.653 54.4603 402.599 54.3865 402.561C54.3127 402.523 54.2311 402.503 54.1481 402.502C54.0656 402.503 53.9843 402.522 53.91 402.557C53.8357 402.593 53.77 402.644 53.7178 402.708L52.1863 404.688L51.457 401.09C51.4385 400.998 51.3962 400.912 51.3342 400.842C51.2722 400.772 51.1927 400.719 51.1038 400.689C51.0148 400.659 50.9196 400.653 50.8275 400.671C50.7354 400.69 50.6499 400.732 50.5794 400.794L43.0651 407.345C43.0025 407.399 42.9534 407.467 42.9217 407.544C42.8901 407.62 42.8768 407.703 42.8828 407.786C42.929 408.368 44.0327 422.118 50.2998 429.571C54.2259 434.242 59.6446 435.144 63.2449 435.144ZM66.4295 433.81C64.6087 434.128 56.3846 435.154 51.1142 428.875C45.5229 422.237 44.1567 409.916 43.9695 407.958L50.5867 402.194L51.3646 406.034C51.3848 406.135 51.4335 406.227 51.5049 406.301C51.5763 406.374 51.6675 406.426 51.7674 406.449C51.8674 406.473 51.972 406.467 52.0686 406.432C52.1653 406.398 52.2501 406.336 52.3127 406.255L54.1262 403.914L57.4081 408.376C57.4494 411.945 58.9688 417.945 65.8291 426.521L65.9676 426.696C66.7723 427.708 66.6921 431.442 66.4295 433.81Z" fill="#0C3029"/>
<path d="M45.9289 408.286C45.9289 408.286 47.5455 431.67 64.9321 431.165L45.9289 408.286Z" fill="white"/>
<path d="M64.3851 431.706H64.9491C65.0198 431.703 65.0891 431.686 65.153 431.655C65.2169 431.625 65.2742 431.582 65.3214 431.53C65.3687 431.477 65.405 431.416 65.4283 431.349C65.4516 431.282 65.4614 431.212 65.4572 431.141C65.4509 431 65.3901 430.868 65.2876 430.771C65.1851 430.674 65.0489 430.62 64.9077 430.622C48.2262 431.131 46.4686 408.47 46.454 408.24C46.4443 408.099 46.3788 407.967 46.2719 407.874C46.165 407.781 46.0255 407.734 45.8839 407.744C45.7424 407.753 45.6105 407.819 45.5173 407.925C45.4241 408.032 45.3771 408.171 45.3868 408.313C45.4111 408.56 47.2125 431.706 64.3851 431.706Z" fill="#0C3029"/>
<path d="M69.3468 401.575C69.2738 402.339 70.076 413.022 73.3846 419.73C73.3846 419.73 71.8507 424.651 67.1564 423.768C67.1564 423.768 59.9461 410.067 58.434 401.204L69.3468 401.575Z" fill="white"/>
<path d="M68.2504 424.408C72.4269 424.408 73.8733 419.939 73.8879 419.888C73.9287 419.757 73.9174 419.616 73.8563 419.493C70.5112 412.731 69.8233 402.169 69.8719 401.626C69.8787 401.553 69.8705 401.48 69.848 401.411C69.8254 401.342 69.7889 401.278 69.7406 401.223C69.6928 401.169 69.6342 401.125 69.5686 401.094C69.5029 401.063 69.4315 401.046 69.359 401.044L58.4462 400.663C58.3662 400.657 58.286 400.67 58.2123 400.702C58.1387 400.734 58.0738 400.783 58.0232 400.845C57.9714 400.905 57.9334 400.975 57.912 401.052C57.8906 401.128 57.8862 401.208 57.8992 401.286C59.4089 410.137 66.381 423.455 66.6775 424.018C66.7152 424.089 66.7684 424.15 66.8332 424.198C66.898 424.245 66.9728 424.277 67.0519 424.292C67.4469 424.368 67.8481 424.407 68.2504 424.408ZM72.7988 419.764C72.4803 420.604 71.0266 423.785 67.5017 423.285C66.5755 421.49 60.6535 409.802 59.0734 401.755L68.7974 402.092C68.9043 404.569 69.8743 413.696 72.7988 419.764Z" fill="#0C3029"/>
<path d="M64.5333 418.643C64.5333 418.643 63.3373 432.657 65.1022 436.624C65.1022 436.624 78.4727 443.486 93.9752 443.466C94.2372 443.467 94.4967 443.416 94.7388 443.316C94.981 443.216 95.2009 443.07 95.3862 442.885C95.5714 442.7 95.7182 442.481 95.8182 442.239C95.9181 441.997 95.9693 441.738 95.9686 441.477C95.9467 438.827 95.2393 433.987 91.0045 430.154C84.8346 424.573 71.5929 415.434 71.5929 415.434L68.9188 418.663L70.0395 423.758L64.5333 418.643Z" fill="white"/>
<path d="M93.8999 444C94.2457 444.007 94.5893 443.944 94.9101 443.815C95.2309 443.686 95.5224 443.494 95.767 443.25C96.0006 443.017 96.1855 442.739 96.3107 442.434C96.4359 442.129 96.499 441.802 96.4963 441.472C96.4744 438.803 95.7669 433.749 91.3571 429.758C85.231 424.229 72.0233 415.087 71.8921 414.994C71.7808 414.915 71.6432 414.88 71.5075 414.899C71.3719 414.917 71.2484 414.987 71.1628 415.094L68.4886 418.323C68.4371 418.386 68.4003 418.459 68.3809 418.537C68.3615 418.616 68.3601 418.698 68.3768 418.777L69.1304 422.21L64.8786 418.253C64.8053 418.184 64.7141 418.137 64.6154 418.118C64.5166 418.098 64.4144 418.107 64.3205 418.143C64.2266 418.179 64.1447 418.241 64.0843 418.321C64.0239 418.402 63.9875 418.497 63.9792 418.597C63.9305 419.175 62.7928 432.796 64.5917 436.843C64.641 436.953 64.7268 437.044 64.8348 437.1C64.9929 437.17 78.4776 444 93.8999 444ZM71.6806 416.154C73.9463 417.734 85.1629 425.616 90.6424 430.551C94.7605 434.268 95.4096 438.995 95.4315 441.469C95.4332 441.658 95.3973 441.845 95.3259 442.019C95.2546 442.194 95.1491 442.352 95.0158 442.486C94.8701 442.629 94.6971 442.741 94.507 442.816C94.317 442.89 94.1138 442.926 93.9097 442.92C79.6688 442.92 67.1224 437.01 65.518 436.224C64.2004 432.881 64.7522 423.086 64.9832 419.779L69.675 424.146C69.7584 424.224 69.8645 424.273 69.9778 424.286C70.091 424.299 70.2056 424.276 70.3047 424.22C70.4038 424.163 70.4823 424.077 70.5286 423.973C70.575 423.869 70.5868 423.753 70.5623 423.641L69.4975 418.789L71.6806 416.154Z" fill="#0C3029"/>
<path d="M66.1403 432.483C66.1403 432.483 78.8472 440.489 94.0507 439.575L66.1403 432.483Z" fill="white"/>
<path d="M91.6391 440.181C92.4494 440.181 93.2597 440.157 94.0701 440.108C94.2118 440.1 94.3443 440.035 94.4386 439.929C94.5328 439.823 94.5813 439.684 94.5733 439.543C94.5627 439.402 94.4977 439.271 94.392 439.177C94.2863 439.084 94.1481 439.035 94.0069 439.041C79.1437 439.941 66.5365 432.109 66.415 432.031C66.3556 431.994 66.2894 431.968 66.2201 431.956C66.1509 431.944 66.0799 431.946 66.0112 431.961C65.9426 431.976 65.8777 432.005 65.8202 432.045C65.7626 432.086 65.7136 432.137 65.676 432.196C65.6383 432.256 65.6127 432.322 65.6006 432.391C65.5885 432.46 65.5902 432.531 65.6056 432.599C65.6209 432.668 65.6496 432.733 65.6901 432.79C65.7305 432.847 65.7819 432.896 65.8413 432.934C65.9774 433.009 77.5271 440.181 91.6391 440.181Z" fill="#0C3029"/>
<path d="M45.9046 261.851L85.2868 260.152L84.9976 262.797L90.9973 261.827C90.9973 261.827 105.698 304.989 105.77 333.415C105.824 355.397 81.7497 382.91 70.8272 394.265C71.204 400.702 71.5857 404.588 71.5857 404.588L58.4194 406.474C36.5963 324.144 45.9046 261.851 45.9046 261.851ZM74.8943 355.443C76.1341 346.182 75.1909 333.335 73.7347 321.791C70.7884 338.636 70.0469 356.971 70.1295 372.089C72.281 367.161 74.0823 361.535 74.8943 355.443Z" fill="white"/>
<path d="M58.4267 407.032H58.502L71.6708 405.146C71.8069 405.127 71.9303 405.056 72.015 404.948C72.0998 404.84 72.1393 404.703 72.1254 404.566C72.1254 404.528 71.7486 400.709 71.3961 394.495C82.0512 383.395 106.381 355.612 106.325 333.444C106.252 305.256 91.6706 262.113 91.5224 261.683C91.4819 261.564 91.4004 261.463 91.2922 261.398C91.184 261.333 91.0562 261.309 90.9316 261.329L85.6247 262.176L85.8387 260.235C85.8467 260.159 85.8383 260.081 85.8138 260.008C85.7893 259.936 85.7495 259.869 85.6969 259.813C85.6444 259.757 85.5803 259.712 85.5092 259.683C85.438 259.654 85.3614 259.64 85.2844 259.643L45.9022 261.341C45.778 261.347 45.6598 261.396 45.5676 261.479C45.4754 261.562 45.4149 261.675 45.3965 261.797C45.3041 262.421 36.3216 325.144 57.9308 406.658C57.9641 406.764 58.0299 406.857 58.1188 406.924C58.2077 406.991 58.3153 407.029 58.4267 407.032ZM71.0144 404.156L58.8229 405.901C38.366 328.385 45.6153 268.062 46.3738 262.365L84.6961 260.725L84.4724 262.751C84.4628 262.833 84.4726 262.916 84.5008 262.993C84.5291 263.071 84.5752 263.141 84.6353 263.197C84.6949 263.254 84.7667 263.296 84.845 263.32C84.9234 263.345 85.0064 263.351 85.0875 263.338L90.6423 262.45C92.1593 267.016 105.175 306.93 105.241 333.442C105.296 355.333 80.9305 383.026 70.4504 393.918C70.399 393.97 70.3591 394.033 70.3336 394.102C70.3081 394.171 70.2973 394.245 70.3021 394.318C70.5963 399.379 70.9002 402.9 71.0144 404.156ZM70.1295 372.63C70.2329 372.629 70.3339 372.599 70.4202 372.542C70.5065 372.485 70.5744 372.404 70.6157 372.31C72.9885 366.962 74.6059 361.312 75.4218 355.52C76.4793 347.599 76.0879 336.232 74.2598 321.733C74.2441 321.606 74.1832 321.488 74.0881 321.402C73.9931 321.316 73.8702 321.267 73.742 321.264C73.6141 321.263 73.49 321.307 73.3913 321.388C73.2926 321.47 73.2257 321.583 73.2023 321.708C70.7008 336.023 69.4829 352.97 69.5899 372.099C69.5902 372.221 69.6329 372.34 69.7108 372.435C69.7888 372.53 69.8972 372.596 70.0177 372.62C70.0545 372.628 70.092 372.631 70.1295 372.63ZM74.3643 355.38C73.6956 360.191 72.4509 364.905 70.6571 369.42C70.6741 353.058 71.6781 338.35 73.6496 325.602C75.079 338.233 75.3197 348.239 74.3643 355.38Z" fill="#0C3029"/>
<path d="M73.2509 332.5C73.3212 332.5 73.3906 332.486 73.4554 332.459C73.5202 332.431 73.5789 332.392 73.6284 332.342C73.6778 332.292 73.717 332.233 73.7436 332.168C73.7701 332.104 73.7836 332.034 73.7833 331.964C73.7274 322.594 76.3894 304.693 80.1793 299.164C80.2224 299.106 80.2533 299.04 80.2703 298.97C80.2872 298.9 80.2899 298.828 80.278 298.757C80.2661 298.686 80.24 298.618 80.2012 298.557C80.1624 298.497 80.1117 298.445 80.0522 298.404C79.9927 298.363 79.9255 298.335 79.8548 298.321C79.7841 298.307 79.7113 298.308 79.6408 298.322C79.5702 298.337 79.5034 298.366 79.4443 298.407C79.3852 298.448 79.335 298.501 79.2968 298.562C75.2565 304.458 72.6578 322.582 72.7112 331.969C72.7125 332.111 72.7701 332.246 72.8712 332.346C72.9723 332.445 73.1089 332.501 73.2509 332.5Z" fill="#0C3029"/>
<path d="M70.6619 386.814H70.7324C70.873 386.795 71.0003 386.721 71.0864 386.609C71.1726 386.497 71.2105 386.355 71.1919 386.214C70.0882 377.875 70.6522 363.573 70.6571 363.43C70.66 363.36 70.649 363.29 70.6247 363.224C70.6005 363.158 70.5635 363.097 70.5159 363.046C70.4197 362.942 70.286 362.88 70.1441 362.874C70.0023 362.868 69.8639 362.919 69.7595 363.015C69.6551 363.111 69.5932 363.244 69.5874 363.386C69.5874 363.532 69.0161 377.926 70.132 386.353C70.1501 386.48 70.2136 386.597 70.3109 386.682C70.4082 386.766 70.5329 386.813 70.6619 386.814Z" fill="#0C3029"/>
<path d="M50.1297 166.265C48.3672 169.797 50.859 171.047 49.6435 177.911C48.744 182.952 46.9305 184.881 48.1338 187.39C49.2205 189.651 51.8338 190.464 53.5622 191.002C61.4022 193.429 68.9578 189.474 73.5961 187.038C77.3472 185.068 82.4936 182.365 82.1484 179.626C81.8032 176.887 76.5012 177.297 74.007 172.764C71.999 169.125 74.306 166.828 72.1934 163.744C69.461 159.75 63.0869 159.918 62.0659 159.944C57.9697 160.051 52.3005 161.912 50.1297 166.265Z" fill="#0C3029"/>
<path d="M93.9388 187.159L73.319 192.31C73.1383 192.35 72.9493 192.323 72.7873 192.233C72.6253 192.144 72.5015 191.999 72.439 191.825C71.0363 187.885 73.2194 183.471 73.8515 182.326C73.9013 182.238 73.9686 182.16 74.0492 182.098C74.1298 182.036 74.2221 181.991 74.3206 181.965C75.2829 181.711 76.2134 181.35 77.0944 180.888C77.5865 180.623 77.9601 180.182 78.1404 179.654C78.3208 179.126 78.2945 178.549 78.0668 178.039C77.3156 176.341 76.4939 174.038 76.0296 173.097C75.972 172.986 75.9448 172.861 75.9508 172.736C75.9568 172.61 75.9957 172.489 76.0637 172.384C76.4137 171.864 76.9607 171.467 76.8951 170.685C76.884 170.539 76.8291 170.4 76.7376 170.286C76.6461 170.172 76.5222 170.088 76.3821 170.045C73.7931 169.28 71.7875 165.401 70.0615 164.222C69.2398 163.659 68.6807 163.508 67.7545 163.009C67.5993 162.92 67.4172 162.89 67.2415 162.924C62.8414 163.877 69.585 169.327 63.8187 172.524C63.6764 172.6 63.5618 172.719 63.4911 172.863C63.4203 173.008 63.3972 173.171 63.4249 173.33C63.5107 173.892 63.5172 174.464 63.4443 175.028V175.048C63.4294 175.181 63.379 175.308 63.2984 175.415C63.2178 175.522 63.11 175.606 62.986 175.658C62.862 175.71 62.7264 175.727 62.5933 175.709C62.4602 175.691 62.3343 175.638 62.2288 175.555C61.3561 174.844 60.4639 174.64 59.9388 174.946C59.1925 175.382 59.2387 176.821 59.5037 177.685C60.0288 179.403 61.8277 180.196 62.8512 180.516C63.0371 180.577 63.192 180.707 63.2828 180.88C63.3737 181.052 63.3932 181.254 63.3374 181.441C62.6567 183.801 60.5927 191.192 60.4347 194.542C60.4284 194.709 60.3667 194.87 60.2594 194.998C60.152 195.126 60.0051 195.215 59.8416 195.251L55.9058 196.11C49.9814 197.405 42.951 200.982 38.4196 205.004L32.5706 209.9C32.116 210.303 30.0618 211.514 30.4896 211.948C42.7419 224.383 66.7991 216.604 75.7063 212.661C84.3437 208.84 92.9518 190.995 96.1267 194.557C98.2247 196.906 94.5198 187.031 93.9388 187.159Z" fill="white"/>
<path d="M49.3445 219.246C61.6259 219.246 73.8977 214.059 75.9251 213.156C80.2693 211.235 84.4531 206.05 88.1458 201.477C90.973 197.975 93.6423 194.668 95.1276 194.63C95.2438 194.629 95.3586 194.655 95.4634 194.705C95.5682 194.755 95.6604 194.828 95.7329 194.918C95.9055 195.11 96.4233 195.69 96.9484 195.36C97.2134 195.195 97.9208 194.753 95.7548 189.433C94.6317 186.674 94.2719 186.521 93.81 186.638H93.793L73.1756 191.791C73.124 191.797 73.0718 191.786 73.0276 191.758C72.9834 191.731 72.9499 191.69 72.9325 191.641C71.6174 187.938 73.6619 183.767 74.3109 182.576C74.3416 182.525 74.3913 182.487 74.4495 182.472C75.4501 182.208 76.418 181.832 77.3351 181.353C77.9466 181.025 78.4115 180.478 78.6368 179.822C78.8621 179.166 78.8313 178.45 78.5506 177.816C78.1957 177.01 77.8213 176.045 77.4785 175.191C77.0896 174.22 76.7492 173.364 76.5061 172.854C76.4912 172.827 76.4834 172.796 76.4834 172.764C76.4834 172.733 76.4912 172.702 76.5061 172.675C76.5839 172.561 76.6714 172.454 76.7492 172.347C77.0774 171.944 77.4785 171.44 77.4177 170.634C77.3973 170.382 77.301 170.141 77.1415 169.943C76.9819 169.746 76.7664 169.601 76.5231 169.528C75.0816 169.101 73.7542 167.502 72.5849 166.09C71.8094 165.153 71.0753 164.27 70.3508 163.775C69.8968 163.471 69.4168 163.207 68.9165 162.987C68.6394 162.858 68.3452 162.72 67.9976 162.531C67.7295 162.381 67.4164 162.332 67.1151 162.392C66.2959 162.572 65.7416 162.904 65.4134 163.416C64.8738 164.263 65.1266 165.357 65.3964 166.519C65.8486 168.482 66.3178 170.511 63.5416 172.051C63.3002 172.183 63.1067 172.387 62.9888 172.635C62.8709 172.883 62.8347 173.162 62.8852 173.432C62.9571 173.944 62.9571 174.463 62.8852 174.975C62.884 175.016 62.8707 175.056 62.8469 175.091C62.8232 175.125 62.79 175.151 62.7515 175.166C62.7156 175.183 62.6758 175.189 62.6367 175.184C62.5975 175.179 62.5606 175.163 62.5303 175.137C61.4947 174.295 60.3837 174.046 59.6325 174.482C58.5702 175.103 58.6455 176.828 58.9567 177.838C59.5523 179.779 61.5287 180.672 62.6543 181.023C62.7081 181.041 62.7531 181.078 62.7799 181.128C62.8066 181.178 62.813 181.236 62.7977 181.29C62.1535 183.527 60.0361 191.087 59.8805 194.521C59.8801 194.57 59.8628 194.619 59.8315 194.657C59.8001 194.696 59.7566 194.723 59.7079 194.734L55.7721 195.593C49.7627 196.908 42.6447 200.533 38.0452 204.611L32.2108 209.495C32.1087 209.587 31.8948 209.738 31.6711 209.898C30.6258 210.626 29.9354 211.169 29.8844 211.744C29.8742 211.851 29.8877 211.958 29.9238 212.059C29.96 212.159 30.0179 212.251 30.0934 212.327C35.2399 217.538 42.297 219.246 49.3445 219.246ZM95.1471 193.562H95.1008C93.122 193.613 90.5573 196.787 87.3216 200.807C83.7043 205.286 79.6057 210.364 75.4973 212.181C72.3734 213.564 44.694 225.249 31.0585 211.761C31.4502 211.399 31.8696 211.068 32.3129 210.771C32.5828 210.577 32.7991 210.427 32.9328 210.306L38.7672 205.422C43.25 201.443 50.1929 197.917 56.0273 196.639L59.9632 195.78C60.2425 195.717 60.4933 195.565 60.6767 195.345C60.86 195.126 60.9655 194.852 60.9769 194.567C61.1324 191.25 63.2231 183.789 63.8601 181.581C63.9548 181.259 63.9184 180.912 63.7587 180.616C63.599 180.32 63.3288 180.098 63.0068 180C62.083 179.711 60.4664 179.005 60.0142 177.522C59.7711 176.734 59.8027 175.635 60.2063 175.399C60.4931 175.232 61.164 175.37 61.8885 175.96C62.0688 176.106 62.2854 176.202 62.5155 176.235C62.7456 176.269 62.9804 176.24 63.1953 176.151C63.4101 176.062 63.5969 175.917 63.7357 175.731C63.8746 175.545 63.9604 175.325 63.984 175.094C64.0653 174.467 64.0563 173.832 63.9573 173.209C63.9546 173.162 63.9654 173.116 63.9882 173.076C64.0111 173.035 64.045 173.002 64.0861 172.98C67.5673 171.039 66.928 168.288 66.4637 166.274C66.2449 165.338 66.0407 164.452 66.3397 163.982C66.5025 163.739 66.838 163.547 67.3607 163.433C67.4107 163.427 67.4614 163.438 67.5041 163.465C67.8736 163.666 68.1872 163.812 68.4765 163.95C68.9248 164.146 69.3551 164.381 69.7625 164.651C70.3605 165.061 71.0485 165.889 71.7754 166.767C73.0419 168.295 74.4811 170.028 76.2338 170.547C76.2703 170.56 76.3024 170.583 76.3261 170.613C76.3498 170.644 76.3642 170.681 76.3676 170.719C76.3967 171.078 76.2314 171.304 75.9324 171.67C75.8254 171.801 75.7185 171.932 75.6237 172.073C75.5038 172.257 75.4342 172.469 75.4219 172.688C75.4095 172.908 75.4548 173.126 75.5532 173.323C75.7963 173.791 76.1293 174.659 76.4915 175.579C76.8319 176.44 77.2208 177.416 77.5831 178.248C77.7554 178.634 77.7761 179.07 77.641 179.471C77.5059 179.871 77.2249 180.206 76.8538 180.41C76.0076 180.851 75.1148 181.197 74.1918 181.441C74.0235 181.485 73.8658 181.563 73.7284 181.67C73.591 181.777 73.4766 181.91 73.392 182.062C72.6822 183.35 70.4748 187.885 71.9334 191.997C72.0391 192.294 72.2498 192.543 72.5259 192.696C72.8021 192.849 73.1247 192.897 73.4333 192.829L93.793 187.734C94.3521 188.591 95.7378 192.153 96.1292 193.848C95.8374 193.658 95.4956 193.558 95.1471 193.562Z" fill="#0C3029"/>
<path d="M67.8736 182.178C69.7922 182.835 71.8792 182.809 73.7809 182.105L67.8736 182.178Z" fill="white"/>
<path d="M70.7325 183.18C71.8382 183.183 72.9353 182.985 73.9706 182.598C74.1034 182.548 74.2109 182.448 74.2695 182.319C74.3281 182.19 74.333 182.043 74.283 181.91C74.233 181.778 74.1324 181.67 74.0031 181.612C73.8739 181.553 73.7266 181.549 73.5938 181.598C71.8176 182.256 69.8689 182.282 68.0754 181.674C67.9439 181.62 67.7965 181.621 67.6656 181.676C67.5348 181.731 67.4312 181.836 67.3777 181.967C67.3242 182.098 67.3251 182.246 67.3803 182.376C67.4355 182.507 67.5403 182.61 67.6719 182.664C68.6533 183.016 69.6896 183.191 70.7325 183.18Z" fill="#0C3029"/>
<path d="M53.1684 164.44C53.1684 164.44 51.8411 156.419 45.467 158.588C39.0929 160.757 45.275 167.359 50.0859 167.866C54.8969 168.373 53.1684 164.44 53.1684 164.44Z" fill="#0C3029"/>
<path d="M174.95 134.1L182.826 126.489C183.108 126.219 183.48 126.063 183.871 126.052C184.262 126.041 184.642 126.175 184.939 126.429C185.236 126.683 185.427 127.038 185.476 127.425C185.525 127.812 185.428 128.203 185.204 128.522L182.707 132.052L184.717 137.012C185.019 137.757 185.084 138.577 184.904 139.36C184.724 140.144 184.308 140.854 183.711 141.393L180.478 144.319C179.686 145.035 178.697 145.496 177.64 145.642C176.582 145.787 175.505 145.612 174.548 145.137L173.233 144.482C172.245 143.991 171.434 143.204 170.915 142.231C170.396 141.258 170.194 140.147 170.338 139.054L170.686 136.412C170.738 136.02 170.871 135.643 171.075 135.303C171.278 134.964 171.55 134.669 171.871 134.438C172.193 134.207 172.559 134.043 172.946 133.957C173.333 133.872 173.733 133.866 174.123 133.94L174.95 134.1Z" fill="white"/>
<path d="M176.924 146.231C178.371 146.23 179.766 145.689 180.835 144.715L184.071 141.789C184.747 141.174 185.219 140.368 185.423 139.478C185.627 138.588 185.554 137.657 185.213 136.81L183.312 132.123L185.641 128.833C185.94 128.405 186.07 127.881 186.003 127.363C185.937 126.845 185.681 126.37 185.283 126.031C184.886 125.691 184.376 125.512 183.853 125.526C183.33 125.541 182.832 125.749 182.454 126.111L174.777 133.528L174.215 133.421C173.755 133.333 173.281 133.339 172.823 133.441C172.364 133.542 171.932 133.736 171.552 134.01C171.171 134.284 170.851 134.633 170.611 135.036C170.371 135.438 170.216 135.885 170.156 136.349L169.808 138.989C169.649 140.192 169.871 141.415 170.442 142.487C171.013 143.558 171.906 144.424 172.995 144.965L174.31 145.62C175.122 146.023 176.017 146.232 176.924 146.231ZM183.92 126.579C184.11 126.578 184.297 126.63 184.46 126.729C184.622 126.828 184.755 126.969 184.842 127.138C184.93 127.306 184.969 127.496 184.955 127.685C184.942 127.875 184.876 128.057 184.766 128.212L182.269 131.744C182.218 131.817 182.186 131.902 182.175 131.99C182.165 132.079 182.177 132.169 182.211 132.251L184.221 137.211C184.482 137.855 184.538 138.563 184.382 139.241C184.227 139.918 183.867 140.531 183.351 140.998L180.118 143.924C179.408 144.571 178.518 144.986 177.566 145.116C176.614 145.246 175.644 145.084 174.787 144.652L173.471 143.999C172.583 143.557 171.855 142.849 171.388 141.975C170.922 141.1 170.74 140.103 170.868 139.12L171.206 136.483C171.248 136.163 171.355 135.855 171.521 135.578C171.687 135.301 171.907 135.061 172.169 134.872C172.431 134.683 172.729 134.549 173.044 134.479C173.36 134.409 173.686 134.404 174.004 134.464L174.84 134.624C174.924 134.64 175.011 134.636 175.093 134.611C175.175 134.587 175.25 134.543 175.312 134.483L183.188 126.872C183.384 126.683 183.647 126.579 183.92 126.581V126.579Z" fill="#0C3029"/>
<path d="M174.95 134.1L177.893 136.272C177.893 136.272 176.921 139.108 174.95 137.946V134.1Z" fill="white"/>
<path d="M175.871 138.758C176.098 138.758 176.324 138.718 176.537 138.64C177.77 138.186 178.338 136.621 178.399 136.456C178.436 136.349 178.438 136.232 178.403 136.124C178.369 136.016 178.301 135.921 178.21 135.854L175.268 133.683C175.211 133.641 175.147 133.611 175.079 133.594C175.011 133.577 174.94 133.573 174.87 133.584C174.801 133.594 174.734 133.618 174.674 133.654C174.614 133.69 174.561 133.738 174.519 133.794C174.477 133.851 174.447 133.915 174.43 133.983C174.413 134.051 174.41 134.122 174.42 134.191C174.43 134.261 174.454 134.327 174.491 134.387C174.527 134.448 174.575 134.5 174.631 134.542L177.235 136.463C177.026 136.89 176.649 137.475 176.165 137.65C176.007 137.699 175.839 137.71 175.675 137.684C175.512 137.657 175.357 137.593 175.222 137.497C175.161 137.461 175.094 137.438 175.025 137.428C174.955 137.418 174.884 137.422 174.816 137.439C174.748 137.457 174.684 137.488 174.628 137.53C174.572 137.572 174.525 137.625 174.489 137.685C174.453 137.745 174.43 137.812 174.42 137.882C174.41 137.951 174.414 138.022 174.431 138.09C174.449 138.158 174.479 138.221 174.522 138.277C174.564 138.333 174.617 138.381 174.677 138.416C175.037 138.636 175.449 138.755 175.871 138.758Z" fill="#0C3029"/>
<path d="M179.926 138.023C180.006 138.024 180.085 138.006 180.156 137.971C180.228 137.937 180.292 137.887 180.342 137.824L183.657 133.719C183.701 133.665 183.734 133.602 183.754 133.535C183.774 133.467 183.78 133.397 183.773 133.327C183.757 133.186 183.687 133.057 183.576 132.968C183.465 132.88 183.324 132.838 183.183 132.853C183.042 132.869 182.913 132.939 182.824 133.05L179.508 137.155C179.444 137.233 179.405 137.328 179.393 137.428C179.381 137.528 179.398 137.63 179.442 137.721C179.486 137.812 179.555 137.888 179.64 137.942C179.726 137.995 179.825 138.024 179.926 138.023Z" fill="#0C3029"/>
<path d="M181.584 140.379C181.663 140.379 181.741 140.362 181.812 140.328C181.884 140.295 181.947 140.246 181.997 140.185L184.671 136.946C184.719 136.892 184.756 136.83 184.779 136.762C184.802 136.694 184.811 136.622 184.805 136.55C184.8 136.479 184.78 136.409 184.747 136.345C184.714 136.281 184.668 136.225 184.613 136.179C184.557 136.133 184.493 136.099 184.424 136.079C184.355 136.059 184.283 136.052 184.211 136.06C184.14 136.069 184.071 136.091 184.008 136.127C183.945 136.162 183.891 136.21 183.847 136.267L181.173 139.508C181.128 139.562 181.094 139.625 181.074 139.692C181.053 139.759 181.046 139.829 181.053 139.899C181.06 139.969 181.08 140.037 181.113 140.099C181.146 140.161 181.191 140.216 181.246 140.26C181.341 140.338 181.461 140.38 181.584 140.379Z" fill="#0C3029"/>
<path d="M42.6689 279.283C42.6689 279.283 49.6921 274.023 53.7276 273.143C57.763 272.262 61.7353 274.96 61.7353 274.96C61.7353 274.96 57.4008 277.364 55.2956 277.629C53.1903 277.893 47.723 287.969 41.1957 284.745L42.6689 279.283Z" fill="white"/>
<path d="M43.8212 285.933C47.4969 285.933 50.6475 282.656 52.8889 280.326C53.8346 279.344 54.9066 278.23 55.3588 278.17C57.5467 277.883 61.8058 275.525 61.9881 275.425C62.0677 275.381 62.1345 275.317 62.1823 275.239C62.2301 275.162 62.2572 275.074 62.2611 274.983C62.265 274.892 62.2455 274.801 62.2046 274.72C62.1636 274.639 62.1025 274.569 62.027 274.518C61.8569 274.402 57.8165 271.701 53.606 272.621C49.5049 273.516 42.6301 278.638 42.3408 278.856C42.2452 278.927 42.1766 279.028 42.1463 279.142L40.6609 284.616C40.6279 284.736 40.6378 284.863 40.6889 284.976C40.7399 285.089 40.8289 285.18 40.9405 285.235C41.8332 285.688 42.8196 285.927 43.8212 285.933ZM60.6316 274.938C59.2897 275.634 56.6594 276.922 55.2202 277.121C54.3937 277.228 53.4383 278.223 52.1158 279.596C49.4587 282.36 45.8511 286.111 41.8132 284.468L43.1284 279.616C44.1543 278.866 50.2756 274.455 53.8248 273.679C56.5792 273.07 59.3262 274.241 60.6389 274.938H60.6316Z" fill="#0C3029"/>
<path d="M48.8753 197.277L52.2787 195.969C52.2787 195.969 72.896 209.141 81.847 189.195L86.5753 187.839L96.1267 214.857L48.1022 227.626L48.8753 197.277Z" fill="white"/>
<path d="M48.1096 228.16C48.1555 228.161 48.2013 228.155 48.2457 228.143L96.2702 215.374C96.3416 215.355 96.4083 215.322 96.4661 215.276C96.5239 215.23 96.5715 215.172 96.606 215.107C96.6405 215.042 96.661 214.97 96.6664 214.897C96.6718 214.823 96.6619 214.75 96.6373 214.68L87.0931 187.662C87.0472 187.534 86.9545 187.428 86.8337 187.365C86.7128 187.303 86.5728 187.288 86.4416 187.324L81.7133 188.681C81.6385 188.702 81.5693 188.74 81.5105 188.791C81.4517 188.842 81.4048 188.906 81.373 188.977C78.9711 194.331 75.4875 197.711 71.0193 199.053C62.3163 201.649 52.6774 195.581 52.5802 195.52C52.509 195.474 52.4276 195.445 52.343 195.437C52.2584 195.428 52.173 195.44 52.094 195.472L48.6906 196.779C48.5921 196.818 48.5071 196.884 48.4461 196.971C48.3852 197.057 48.351 197.159 48.3478 197.265L47.582 227.614C47.5798 227.697 47.5969 227.779 47.6319 227.854C47.667 227.929 47.719 227.995 47.7838 228.046C47.8771 228.119 47.9914 228.159 48.1096 228.16ZM95.4363 214.491L48.6614 226.928L49.3907 197.648L52.218 196.563C53.803 197.522 62.8026 202.61 71.3062 200.077C76.0199 198.672 79.6932 195.161 82.2287 189.644L86.2325 188.496L95.4363 214.491Z" fill="#0C3029"/>
<path d="M175.309 148.175L165.311 145.038C151.272 161.347 137.534 169.724 127.112 174.395C114.281 180.138 92.1885 186.64 92.1885 186.64C92.1885 186.64 92.2274 197.088 74.9283 209.015C57.6293 220.942 31.1703 209.09 31.1703 209.09C31.1703 209.09 1.83296 234.08 0.133682 249.123C-2.68871 274.077 40.8408 286.055 40.8408 286.055L42.6714 279.303C42.6714 279.303 25.1681 265.073 28.9556 250.647C32.7431 236.22 42.5401 229.829 42.5401 229.829C45.4573 246.488 44.2029 265.883 44.2029 265.883C72.9617 273.189 97.7798 263.78 108.736 258.396C110.552 257.5 112.033 256.049 112.964 254.254C113.895 252.459 114.227 250.414 113.912 248.417C111.498 232.986 105.437 213.506 105.437 213.506C112.658 213.159 119.776 211.66 126.522 209.066C162.06 195.273 173.454 155.111 175.309 148.175Z" fill="#0C3029"/>
<path d="M76.827 257.719C76.8961 257.719 76.9646 257.706 77.0287 257.68C98.8178 248.764 102.007 224.213 102.039 223.956C102.056 223.815 102.016 223.673 101.929 223.562C101.841 223.45 101.713 223.378 101.572 223.361C101.431 223.344 101.289 223.384 101.178 223.471C101.066 223.558 100.994 223.686 100.977 223.827C100.947 224.07 97.8163 248.009 76.6228 256.683C76.5089 256.73 76.4149 256.816 76.3569 256.924C76.2988 257.033 76.2803 257.159 76.3043 257.279C76.3284 257.4 76.3935 257.509 76.4888 257.587C76.584 257.666 76.7035 257.709 76.827 257.709V257.719Z" fill="white"/>
<path d="M436.443 361.588C429.991 348.339 429.376 334.985 436.443 321.497L431.369 315.432L292.664 319.983L297.445 363.959L431.712 365.504L436.443 361.588Z" fill="white"/>
<path d="M431.712 366.033C431.837 366.033 431.957 365.989 432.052 365.909L436.783 361.993C436.876 361.917 436.94 361.812 436.965 361.695C436.991 361.578 436.976 361.456 436.924 361.348C430.195 347.519 430.193 334.572 436.924 321.737C436.973 321.644 436.993 321.538 436.982 321.433C436.971 321.328 436.929 321.229 436.861 321.148L431.788 315.082C431.737 315.018 431.672 314.968 431.597 314.934C431.523 314.901 431.441 314.886 431.36 314.891L292.654 319.445C292.58 319.447 292.508 319.464 292.441 319.495C292.375 319.526 292.316 319.571 292.267 319.627C292.219 319.682 292.183 319.747 292.161 319.817C292.139 319.887 292.133 319.961 292.141 320.034L296.913 364.012C296.926 364.144 296.986 364.266 297.084 364.355C297.181 364.445 297.308 364.496 297.441 364.497L431.705 366.04L431.712 366.033ZM435.779 361.445L431.52 364.963L297.927 363.427L293.259 320.483L431.126 315.968L435.804 321.565C429.233 334.334 429.225 347.739 435.779 361.445Z" fill="#0C3029"/>
<path d="M181.572 310.584H439.015C439.74 310.569 440.461 310.698 441.136 310.964C441.81 311.231 442.425 311.629 442.943 312.136C443.461 312.642 443.873 313.247 444.154 313.914C444.436 314.582 444.58 315.298 444.58 316.022C444.58 316.746 444.436 317.463 444.154 318.131C443.873 318.798 443.461 319.403 442.943 319.909C442.425 320.416 441.81 320.814 441.136 321.08C440.461 321.347 439.74 321.476 439.015 321.461H320.659C318.598 321.46 316.557 321.865 314.653 322.652C312.749 323.439 311.019 324.593 309.562 326.047C308.104 327.501 306.948 329.228 306.159 331.128C305.371 333.028 304.965 335.065 304.965 337.122V345.927C304.965 347.984 305.371 350.02 306.159 351.921C306.948 353.821 308.104 355.548 309.562 357.002C311.019 358.456 312.749 359.61 314.653 360.397C316.557 361.184 318.598 361.588 320.659 361.588H439.015C439.74 361.573 440.461 361.702 441.136 361.969C441.81 362.235 442.425 362.633 442.943 363.14C443.461 363.646 443.873 364.251 444.154 364.918C444.436 365.586 444.58 366.303 444.58 367.027C444.58 367.751 444.436 368.467 444.154 369.135C443.873 369.802 443.461 370.407 442.943 370.913C442.425 371.42 441.81 371.818 441.136 372.084C440.461 372.351 439.74 372.48 439.015 372.465H181.572C173.899 372.465 166.541 369.423 161.116 364.009C155.691 358.594 152.643 351.25 152.643 343.593V339.468C152.641 335.676 153.388 331.92 154.841 328.416C156.294 324.911 158.425 321.727 161.112 319.045C163.798 316.362 166.988 314.235 170.498 312.783C174.009 311.331 177.772 310.584 181.572 310.584Z" fill="white"/>
<path d="M181.572 372.999H439.015C439.811 373.015 440.602 372.872 441.342 372.579C442.082 372.286 442.756 371.849 443.325 371.293C443.893 370.737 444.345 370.073 444.653 369.34C444.962 368.608 445.121 367.821 445.121 367.027C445.121 366.232 444.962 365.445 444.653 364.713C444.345 363.98 443.893 363.317 443.325 362.76C442.756 362.204 442.082 361.767 441.342 361.474C440.602 361.181 439.811 361.038 439.015 361.054H320.659C316.64 361.05 312.787 359.455 309.945 356.619C307.103 353.783 305.504 349.938 305.499 345.927V337.122C305.504 333.111 307.103 329.266 309.945 326.43C312.787 323.594 316.64 321.999 320.659 321.995H439.015C439.811 322.011 440.602 321.868 441.342 321.575C442.082 321.282 442.756 320.845 443.325 320.289C443.893 319.732 444.345 319.069 444.653 318.336C444.962 317.604 445.121 316.817 445.121 316.022C445.121 315.228 444.962 314.441 444.653 313.709C444.345 312.976 443.893 312.312 443.325 311.756C442.756 311.2 442.082 310.763 441.342 310.47C440.602 310.177 439.811 310.034 439.015 310.05H181.572C173.758 310.059 166.267 313.16 160.742 318.674C155.217 324.189 152.109 331.665 152.101 339.463V343.588C152.11 351.386 155.218 358.862 160.743 364.376C166.268 369.889 173.758 372.99 181.572 372.999ZM439.015 362.122C439.669 362.107 440.32 362.224 440.929 362.464C441.538 362.704 442.093 363.062 442.561 363.519C443.029 363.976 443.401 364.522 443.655 365.124C443.909 365.726 444.04 366.373 444.04 367.027C444.04 367.68 443.909 368.327 443.655 368.929C443.401 369.531 443.029 370.077 442.561 370.534C442.093 370.991 441.538 371.35 440.929 371.59C440.32 371.83 439.669 371.946 439.015 371.931H181.572C174.042 371.92 166.825 368.93 161.501 363.617C156.177 358.303 153.181 351.1 153.17 343.586V339.461C153.181 331.947 156.177 324.743 161.501 319.43C166.825 314.116 174.042 311.126 181.572 311.115H439.015C439.669 311.101 440.32 311.217 440.929 311.457C441.538 311.697 442.093 312.056 442.561 312.513C443.029 312.97 443.401 313.515 443.655 314.117C443.909 314.72 444.04 315.367 444.04 316.02C444.04 316.673 443.909 317.32 443.655 317.923C443.401 318.525 443.029 319.07 442.561 319.527C442.093 319.984 441.538 320.343 440.929 320.583C440.32 320.823 439.669 320.939 439.015 320.925H320.659C316.355 320.928 312.229 322.635 309.185 325.672C306.141 328.709 304.429 332.827 304.425 337.122V345.927C304.43 350.221 306.142 354.338 309.184 357.374C312.227 360.41 316.352 362.118 320.654 362.122H439.015Z" fill="#0C3029"/>
<path d="M361.709 333.655H371.846C371.988 333.655 372.124 333.599 372.224 333.499C372.325 333.399 372.381 333.263 372.381 333.121C372.381 332.98 372.325 332.844 372.224 332.744C372.124 332.644 371.988 332.588 371.846 332.588H361.709C361.567 332.588 361.431 332.644 361.331 332.744C361.231 332.844 361.174 332.98 361.174 333.121C361.174 333.263 361.231 333.399 361.331 333.499C361.431 333.599 361.567 333.655 361.709 333.655Z" fill="#0C3029"/>
<path d="M376.052 333.655H429.716C429.858 333.655 429.994 333.599 430.094 333.499C430.195 333.399 430.251 333.263 430.251 333.121C430.251 332.98 430.195 332.844 430.094 332.744C429.994 332.644 429.858 332.588 429.716 332.588H376.052C375.91 332.588 375.774 332.644 375.674 332.744C375.573 332.844 375.517 332.98 375.517 333.121C375.517 333.263 375.573 333.399 375.674 333.499C375.774 333.599 375.91 333.655 376.052 333.655Z" fill="#0C3029"/>
<path d="M365.73 340.206H428.163C428.305 340.206 428.441 340.15 428.541 340.05C428.641 339.949 428.698 339.814 428.698 339.672C428.698 339.53 428.641 339.395 428.541 339.295C428.441 339.195 428.305 339.138 428.163 339.138H365.73C365.588 339.138 365.452 339.195 365.352 339.295C365.251 339.395 365.195 339.53 365.195 339.672C365.195 339.814 365.251 339.949 365.352 340.05C365.452 340.15 365.588 340.206 365.73 340.206Z" fill="#0C3029"/>
<path d="M351.9 351.949H361.833C361.975 351.949 362.111 351.893 362.211 351.793C362.311 351.692 362.368 351.557 362.368 351.415C362.368 351.274 362.311 351.138 362.211 351.038C362.111 350.938 361.975 350.881 361.833 350.881H351.9C351.758 350.881 351.622 350.938 351.522 351.038C351.421 351.138 351.365 351.274 351.365 351.415C351.365 351.557 351.421 351.692 351.522 351.793C351.622 351.893 351.758 351.949 351.9 351.949Z" fill="#0C3029"/>
<path d="M366.223 351.949H429.716C429.858 351.949 429.994 351.893 430.094 351.793C430.195 351.692 430.251 351.557 430.251 351.415C430.251 351.274 430.195 351.138 430.094 351.038C429.994 350.938 429.858 350.881 429.716 350.881H366.223C366.082 350.881 365.945 350.938 365.845 351.038C365.745 351.138 365.689 351.274 365.689 351.415C365.689 351.557 365.745 351.692 365.845 351.793C365.945 351.893 366.082 351.949 366.223 351.949Z" fill="#0C3029"/>
<path d="M432.437 435.678H199.892V378.819H432.437C425.571 398.025 425.384 416.984 432.437 435.678Z" fill="white"/>
<path d="M199.892 436.212H432.437C432.524 436.213 432.61 436.192 432.688 436.152C432.766 436.112 432.832 436.053 432.882 435.981C432.931 435.909 432.962 435.826 432.972 435.74C432.982 435.653 432.97 435.565 432.937 435.484C426.058 417.251 426.06 398.244 432.937 378.992C432.966 378.911 432.974 378.825 432.962 378.74C432.95 378.655 432.918 378.575 432.869 378.505C432.819 378.435 432.754 378.378 432.678 378.339C432.602 378.299 432.517 378.279 432.432 378.278H199.892C199.821 378.278 199.752 378.292 199.687 378.319C199.622 378.346 199.563 378.385 199.513 378.435C199.464 378.484 199.424 378.543 199.398 378.608C199.371 378.673 199.357 378.742 199.357 378.812V435.678C199.357 435.748 199.371 435.818 199.398 435.882C199.424 435.947 199.464 436.006 199.513 436.055C199.563 436.105 199.622 436.144 199.687 436.171C199.752 436.198 199.821 436.212 199.892 436.212ZM431.663 435.144H200.426V379.341H431.68C425.054 398.353 425.049 417.115 431.668 435.144H431.663Z" fill="#0C3029"/>
<path d="M227.892 381.624H434.041C434.639 381.638 435.234 381.532 435.791 381.314C436.348 381.095 436.855 380.767 437.283 380.349C437.711 379.932 438.051 379.434 438.284 378.883C438.516 378.333 438.635 377.741 438.635 377.144C438.635 376.547 438.516 375.956 438.284 375.405C438.051 374.855 437.711 374.356 437.283 373.939C436.855 373.521 436.348 373.194 435.791 372.975C435.234 372.756 434.639 372.65 434.041 372.664H166.531C161.299 372.664 156.281 374.738 152.581 378.431C148.882 382.123 146.803 387.131 146.803 392.353V423.302C146.804 428.523 148.883 433.531 152.582 437.222C156.282 440.914 161.299 442.988 166.531 442.988H434.036C434.634 443.002 435.229 442.897 435.786 442.678C436.343 442.459 436.85 442.131 437.278 441.714C437.706 441.296 438.047 440.798 438.279 440.247C438.511 439.697 438.631 439.106 438.631 438.508C438.631 437.911 438.511 437.32 438.279 436.769C438.047 436.219 437.706 435.72 437.278 435.303C436.85 434.886 436.343 434.558 435.786 434.339C435.229 434.12 434.634 434.014 434.036 434.028H227.887C224.191 434.028 220.647 432.563 218.034 429.955C215.421 427.347 213.953 423.81 213.953 420.121V395.534C213.952 393.707 214.313 391.898 215.013 390.21C215.713 388.522 216.74 386.988 218.035 385.697C219.329 384.405 220.866 383.38 222.557 382.682C224.249 381.983 226.061 381.623 227.892 381.624Z" fill="white"/>
<path d="M166.531 443.515H434.036C434.705 443.529 435.37 443.411 435.993 443.165C436.615 442.92 437.182 442.553 437.66 442.086C438.139 441.619 438.519 441.061 438.778 440.446C439.038 439.83 439.172 439.169 439.172 438.501C439.172 437.833 439.038 437.172 438.778 436.556C438.519 435.941 438.139 435.383 437.66 434.916C437.182 434.449 436.615 434.082 435.993 433.837C435.37 433.591 434.705 433.472 434.036 433.487H227.887C224.334 433.483 220.928 432.073 218.416 429.566C215.904 427.059 214.491 423.659 214.487 420.114V395.534C214.491 391.988 215.903 388.588 218.415 386.08C220.928 383.572 224.334 382.162 227.887 382.158H434.036C434.705 382.173 435.37 382.054 435.993 381.808C436.615 381.563 437.182 381.196 437.66 380.729C438.139 380.262 438.519 379.704 438.778 379.089C439.038 378.473 439.172 377.812 439.172 377.144C439.172 376.476 439.038 375.815 438.778 375.199C438.519 374.584 438.139 374.026 437.66 373.559C437.182 373.092 436.615 372.725 435.993 372.48C435.37 372.234 434.705 372.116 434.036 372.13H166.531C161.159 372.136 156.008 374.268 152.21 378.06C148.411 381.851 146.274 386.991 146.269 392.353V423.302C146.277 428.662 148.415 433.8 152.213 437.589C156.012 441.378 161.16 443.509 166.531 443.515ZM434.036 434.562C434.564 434.549 435.088 434.641 435.58 434.834C436.071 435.026 436.518 435.315 436.896 435.683C437.274 436.05 437.574 436.49 437.779 436.975C437.984 437.46 438.089 437.982 438.089 438.508C438.089 439.035 437.984 439.556 437.779 440.041C437.574 440.527 437.274 440.966 436.896 441.334C436.518 441.702 436.071 441.99 435.58 442.183C435.088 442.375 434.564 442.468 434.036 442.454H166.531C161.44 442.454 156.557 440.437 152.956 436.846C149.355 433.254 147.33 428.383 147.326 423.302V392.353C147.326 387.269 149.349 382.394 152.951 378.8C156.553 375.205 161.438 373.186 166.531 373.186H434.036C434.564 373.173 435.088 373.265 435.58 373.457C436.071 373.65 436.518 373.939 436.896 374.306C437.274 374.674 437.574 375.113 437.779 375.599C437.984 376.084 438.089 376.605 438.089 377.132C438.089 377.659 437.984 378.18 437.779 378.665C437.574 379.15 437.274 379.59 436.896 379.958C436.518 380.325 436.071 380.614 435.58 380.806C435.088 380.999 434.564 381.091 434.036 381.078H227.887C224.05 381.083 220.372 382.606 217.659 385.314C214.946 388.021 213.42 391.692 213.415 395.521V420.109C213.42 423.938 214.947 427.608 217.66 430.315C220.373 433.023 224.051 434.545 227.887 434.55L434.036 434.562Z" fill="#0C3029"/>
<path d="M391.846 392.855H426.184C426.326 392.855 426.462 392.799 426.562 392.699C426.663 392.599 426.719 392.463 426.719 392.321C426.719 392.18 426.663 392.044 426.562 391.944C426.462 391.844 426.326 391.788 426.184 391.788H391.846C391.704 391.788 391.568 391.844 391.468 391.944C391.368 392.044 391.311 392.18 391.311 392.321C391.311 392.463 391.368 392.599 391.468 392.699C391.568 392.799 391.704 392.855 391.846 392.855Z" fill="#0C3029"/>
<path d="M325.681 392.855H387.03C387.172 392.855 387.308 392.799 387.408 392.699C387.509 392.599 387.565 392.463 387.565 392.321C387.565 392.18 387.509 392.044 387.408 391.944C387.308 391.844 387.172 391.788 387.03 391.788H325.681C325.54 391.788 325.404 391.844 325.303 391.944C325.203 392.044 325.147 392.18 325.147 392.321C325.147 392.463 325.203 392.599 325.303 392.699C325.404 392.799 325.54 392.855 325.681 392.855Z" fill="#0C3029"/>
<path d="M339.652 400.444H425.467C425.609 400.444 425.745 400.388 425.845 400.288C425.945 400.188 426.002 400.052 426.002 399.91C426.002 399.769 425.945 399.633 425.845 399.533C425.745 399.433 425.609 399.377 425.467 399.377H339.652C339.511 399.377 339.375 399.433 339.274 399.533C339.174 399.633 339.118 399.769 339.118 399.91C339.118 400.052 339.174 400.188 339.274 400.288C339.375 400.388 339.511 400.444 339.652 400.444Z" fill="#0C3029"/>
<path d="M317.066 400.444H333.998C334.14 400.444 334.276 400.388 334.376 400.288C334.476 400.188 334.533 400.052 334.533 399.91C334.533 399.769 334.476 399.633 334.376 399.533C334.276 399.433 334.14 399.377 333.998 399.377H317.066C316.924 399.377 316.788 399.433 316.688 399.533C316.587 399.633 316.531 399.769 316.531 399.91C316.531 400.052 316.587 400.188 316.688 400.288C316.788 400.388 316.924 400.444 317.066 400.444Z" fill="#0C3029"/>
<path d="M334.47 416.283H425.46C425.601 416.283 425.737 416.227 425.838 416.126C425.938 416.026 425.994 415.891 425.994 415.749C425.994 415.607 425.938 415.472 425.838 415.372C425.737 415.271 425.601 415.215 425.46 415.215H334.47C334.328 415.215 334.192 415.271 334.091 415.372C333.991 415.472 333.935 415.607 333.935 415.749C333.935 415.891 333.991 416.026 334.091 416.126C334.192 416.227 334.328 416.283 334.47 416.283Z" fill="#0C3029"/>
<path d="M325.682 416.283H329.683C329.825 416.283 329.961 416.227 330.061 416.126C330.161 416.026 330.218 415.891 330.218 415.749C330.218 415.607 330.161 415.472 330.061 415.372C329.961 415.271 329.825 415.215 329.683 415.215H325.682C325.54 415.215 325.404 415.271 325.303 415.372C325.203 415.472 325.147 415.607 325.147 415.749C325.147 415.891 325.203 416.026 325.303 416.126C325.404 416.227 325.54 416.283 325.682 416.283Z" fill="#0C3029"/>
<path d="M407.174 257.636C407.323 257.637 407.472 257.629 407.621 257.612C408.158 257.553 408.677 257.386 409.149 257.123C409.62 256.859 410.034 256.504 410.365 256.079C411.037 255.231 411.35 254.154 411.237 253.08C411.124 252.005 410.594 251.016 409.76 250.326C409.353 249.992 408.882 249.743 408.376 249.595C407.871 249.447 407.34 249.402 406.816 249.463C406.279 249.521 405.76 249.687 405.288 249.95C404.817 250.213 404.403 250.568 404.072 250.993C403.4 251.842 403.087 252.918 403.2 253.993C403.313 255.069 403.842 256.057 404.674 256.748C405.38 257.323 406.263 257.637 407.174 257.636ZM409.087 251.156C409.703 251.669 410.094 252.402 410.175 253.199C410.257 253.995 410.023 254.792 409.524 255.419C409.28 255.733 408.975 255.995 408.628 256.189C408.281 256.383 407.898 256.506 407.502 256.55C407.119 256.595 406.731 256.562 406.361 256.454C405.992 256.345 405.648 256.163 405.35 255.919C404.734 255.405 404.343 254.672 404.262 253.875C404.18 253.078 404.413 252.281 404.913 251.653C405.157 251.34 405.461 251.078 405.808 250.884C406.155 250.689 406.538 250.567 406.933 250.523C407.316 250.479 407.704 250.512 408.074 250.621C408.444 250.73 408.789 250.912 409.087 251.156Z" fill="#0C3029"/>
<path d="M409.952 274.705C410.085 274.705 410.214 274.656 410.312 274.567L412.804 272.313C412.909 272.216 412.971 272.082 412.977 271.94C412.983 271.797 412.932 271.658 412.835 271.553C412.739 271.448 412.604 271.386 412.462 271.38C412.319 271.374 412.18 271.425 412.075 271.522L409.583 273.776C409.503 273.848 409.446 273.943 409.422 274.048C409.397 274.153 409.404 274.263 409.443 274.364C409.482 274.464 409.551 274.551 409.64 274.612C409.729 274.673 409.834 274.705 409.943 274.705H409.952Z" fill="#0C3029"/>
<path d="M401.235 282.595C401.367 282.595 401.494 282.546 401.592 282.457L404.084 280.2C404.189 280.104 404.251 279.97 404.257 279.827C404.263 279.685 404.212 279.546 404.115 279.441C404.019 279.336 403.884 279.274 403.741 279.268C403.599 279.262 403.46 279.313 403.354 279.409L400.865 281.663C400.784 281.736 400.727 281.831 400.702 281.936C400.676 282.042 400.683 282.152 400.723 282.253C400.762 282.354 400.831 282.441 400.92 282.502C401.01 282.563 401.116 282.596 401.225 282.595H401.235Z" fill="#0C3029"/>
<path d="M411.875 283.141C412.007 283.141 412.134 283.092 412.232 283.005C412.285 282.958 412.328 282.902 412.358 282.838C412.388 282.775 412.406 282.706 412.41 282.636C412.414 282.566 412.404 282.496 412.38 282.43C412.357 282.364 412.321 282.303 412.274 282.251L410.03 279.752C409.935 279.646 409.802 279.582 409.661 279.575C409.519 279.567 409.38 279.616 409.274 279.71C409.168 279.805 409.104 279.938 409.097 280.079C409.089 280.221 409.138 280.359 409.233 280.465L411.476 282.964C411.527 283.019 411.589 283.064 411.657 283.094C411.726 283.125 411.8 283.141 411.875 283.141Z" fill="#0C3029"/>
<path d="M404.033 274.407C404.136 274.407 404.237 274.377 404.324 274.321C404.411 274.265 404.48 274.185 404.522 274.091C404.564 273.996 404.578 273.892 404.562 273.79C404.546 273.688 404.501 273.593 404.431 273.516L402.188 271.017C402.092 270.916 401.961 270.857 401.822 270.851C401.683 270.845 401.547 270.894 401.443 270.986C401.339 271.079 401.276 271.208 401.266 271.346C401.256 271.485 401.301 271.622 401.39 271.728L403.634 274.227C403.684 274.283 403.745 274.328 403.814 274.359C403.883 274.39 403.957 274.406 404.033 274.407Z" fill="#0C3029"/>
<path d="M23.8748 178.609C24.0076 178.609 24.1356 178.559 24.2346 178.471L26.7239 176.217C26.776 176.169 26.8181 176.112 26.8479 176.048C26.8776 175.984 26.8944 175.914 26.8974 175.844C26.9003 175.773 26.8893 175.703 26.865 175.637C26.8406 175.57 26.8035 175.51 26.7556 175.458C26.7077 175.406 26.65 175.364 26.5858 175.334C26.5217 175.304 26.4523 175.288 26.3817 175.285C26.311 175.282 26.2405 175.293 26.1741 175.317C26.1077 175.341 26.0467 175.378 25.9946 175.426L23.5029 177.68C23.4228 177.753 23.3666 177.847 23.3417 177.952C23.3167 178.057 23.3243 178.167 23.3632 178.268C23.4022 178.369 23.4707 178.455 23.5599 178.516C23.6491 178.577 23.7546 178.609 23.8626 178.609H23.8748Z" fill="#0C3029"/>
<path d="M15.1548 186.499C15.2878 186.5 15.4161 186.45 15.5146 186.361L18.0064 184.107C18.0586 184.059 18.1008 184.002 18.1307 183.938C18.1606 183.874 18.1776 183.804 18.1807 183.734C18.1837 183.663 18.1728 183.592 18.1485 183.526C18.1242 183.46 18.0871 183.399 18.0392 183.347C17.9913 183.294 17.9336 183.252 17.8694 183.222C17.8052 183.193 17.7357 183.176 17.665 183.173C17.5942 183.17 17.5235 183.18 17.4569 183.205C17.3904 183.229 17.3293 183.266 17.2771 183.314L14.7853 185.568C14.7056 185.641 14.6498 185.736 14.6251 185.841C14.6004 185.946 14.6079 186.055 14.6468 186.156C14.6856 186.257 14.7539 186.343 14.8428 186.404C14.9317 186.466 15.0371 186.499 15.1451 186.499H15.1548Z" fill="#0C3029"/>
<path d="M25.8099 187.062C25.9416 187.062 26.0687 187.013 26.1673 186.926C26.2726 186.832 26.3361 186.699 26.3438 186.558C26.3515 186.416 26.303 186.278 26.2087 186.172L23.9648 183.673C23.9179 183.621 23.8611 183.578 23.7977 183.548C23.7343 183.517 23.6656 183.5 23.5954 183.496C23.5252 183.492 23.4549 183.502 23.3886 183.525C23.3222 183.549 23.2611 183.585 23.2088 183.632C23.1564 183.678 23.1138 183.735 23.0834 183.798C23.053 183.862 23.0354 183.93 23.0316 184C23.0277 184.07 23.0377 184.14 23.0611 184.207C23.0844 184.273 23.1205 184.334 23.1675 184.386L25.4113 186.885C25.4614 186.941 25.5229 186.986 25.5916 187.016C25.6603 187.047 25.7347 187.063 25.8099 187.062Z" fill="#0C3029"/>
<path d="M17.9554 178.304C18.0872 178.303 18.2142 178.255 18.3128 178.168C18.4181 178.073 18.4815 177.94 18.4892 177.799C18.497 177.658 18.4484 177.519 18.3541 177.413L16.1103 174.914C16.0146 174.813 15.8833 174.754 15.7443 174.748C15.6053 174.742 15.4696 174.791 15.3658 174.883C15.262 174.976 15.1984 175.105 15.1886 175.243C15.1787 175.382 15.2233 175.519 15.3129 175.625L17.5567 178.127C17.6071 178.182 17.6686 178.227 17.7373 178.257C17.806 178.288 17.8803 178.304 17.9554 178.304Z" fill="#0C3029"/>
<path d="M180.777 24.6505C180.819 24.6508 180.862 24.6451 180.903 24.6335C204.676 18.893 226.142 16.5105 244.707 17.5465C244.849 17.5545 244.988 17.506 245.094 17.4116C245.2 17.3172 245.264 17.1846 245.272 17.043C245.281 16.9015 245.232 16.7625 245.137 16.6567C245.043 16.5509 244.91 16.487 244.768 16.4789C226.095 15.4357 204.525 17.8304 180.653 23.5975C180.525 23.6278 180.413 23.7038 180.338 23.811C180.263 23.9182 180.23 24.0491 180.246 24.179C180.261 24.3089 180.323 24.4286 180.421 24.5155C180.519 24.6025 180.646 24.6505 180.777 24.6505Z" fill="#0C3029"/>
<path d="M188.619 15.54C188.655 15.5397 188.691 15.5357 188.726 15.5279C210.549 11.1219 241.681 6.98271 266.064 12.2816C266.132 12.2966 266.203 12.2979 266.272 12.2855C266.341 12.2732 266.407 12.2473 266.467 12.2095C266.526 12.1716 266.577 12.1225 266.617 12.0649C266.657 12.0074 266.685 11.9425 266.7 11.874C266.715 11.8055 266.717 11.7347 266.704 11.6657C266.692 11.5967 266.666 11.5308 266.628 11.4717C266.59 11.4127 266.541 11.3617 266.483 11.3217C266.426 11.2816 266.361 11.2533 266.292 11.2383C241.727 5.90062 210.437 10.0567 188.515 14.4822C188.384 14.5074 188.267 14.5805 188.187 14.6872C188.108 14.7938 188.071 14.9263 188.084 15.0586C188.097 15.191 188.159 15.3138 188.258 15.4028C188.357 15.4918 188.486 15.5408 188.619 15.54Z" fill="#0C3029"/>
<path d="M272.873 21.1082C272.905 21.1118 272.938 21.1118 272.97 21.1082L286.341 18.6286C286.438 18.6087 286.529 18.5618 286.601 18.4932C286.674 18.4247 286.726 18.3372 286.751 18.2407C286.777 18.1442 286.774 18.0426 286.745 17.9473C286.715 17.8521 286.659 17.767 286.584 17.7017L275.498 7.97985C275.427 7.91792 275.341 7.87582 275.249 7.85782C275.156 7.83982 275.06 7.84655 274.971 7.87734C274.882 7.90813 274.803 7.96188 274.741 8.03314C274.68 8.1044 274.638 8.19065 274.621 8.28313L272.331 20.4871C272.316 20.5642 272.319 20.6435 272.339 20.7194C272.359 20.7953 272.396 20.8659 272.446 20.9261C272.496 20.9864 272.559 21.0348 272.631 21.0679C272.702 21.1011 272.78 21.1181 272.858 21.1179L272.873 21.1082ZM285.064 17.7697L273.551 19.8951L275.523 9.37978L285.064 17.7697Z" fill="#0C3029"/>
</svg>
